<svg width="48" height="49" viewBox="0 0 48 49" fill="none" xmlns="http://www.w3.org/2000/svg">
<path opacity="0.971512" fill-rule="evenodd" clip-rule="evenodd" d="M22.5 18.9999L45.0835 12.6758L43.7435 44.8358H19.6235L22.5 18.9999Z" fill="#7C669B"/>
<path opacity="0.971512" fill-rule="evenodd" clip-rule="evenodd" d="M20.9635 45.5059H44.4135L43.7435 44.8359H19.6235L20.9635 45.5059Z" fill="#7B659A"/>
<path fill-rule="evenodd" clip-rule="evenodd" d="M45.7534 13.3458L45.0834 12.6758L43.7434 44.8358L44.4134 45.5058L45.7534 13.3458Z" fill="#A495BA"/>
<path opacity="0.3" fill-rule="evenodd" clip-rule="evenodd" d="M38.4156 17.9972L41.32 14.4744L42.8163 15.0187C43.3678 15.2193 43.7246 15.7554 43.6967 16.3417L42.4644 42.22C42.4304 42.9345 41.8412 43.4963 41.1259 43.4963H21.0943C20.9236 43.4963 20.7546 43.4637 20.5961 43.4002C20.0054 43.1637 19.3581 42.5542 18.6541 41.5719C18.5783 41.4661 18.3531 41.0047 18.4237 40.8926C20.8862 36.9775 27.5281 29.3705 38.3495 18.0716C38.3724 18.0476 38.3945 18.0228 38.4156 17.9972Z" fill="white"/>
<path d="M21.5167 19.6394L40.5812 14.5066C41.2958 14.3142 42.0311 14.7376 42.2235 15.4522C42.2626 15.5975 42.277 15.7483 42.266 15.8983L40.4819 40.2809C40.4318 40.9656 39.8723 41.5017 39.1861 41.5225L19.8176 42.1095C19.0779 42.1319 18.46 41.5504 18.4376 40.8107C18.4358 40.7503 18.4381 40.6899 18.4444 40.6298L20.5325 20.793C20.5905 20.2419 20.9817 19.7834 21.5167 19.6394Z" fill="#CAC1D5"/>
<path d="M21.5167 19.6394L40.5812 14.5066C41.2958 14.3142 42.0311 14.7376 42.2235 15.4522C42.2626 15.5975 42.277 15.7483 42.266 15.8983L40.4819 40.2809C40.4318 40.9656 39.8723 41.5017 39.1861 41.5225L19.8176 42.1095C19.0779 42.1319 18.46 41.5504 18.4376 40.8107C18.4358 40.7503 18.4381 40.6899 18.4444 40.6298L20.5325 20.793C20.5905 20.2419 20.9817 19.7834 21.5167 19.6394Z" fill="url(#paint0_radial_6_1069)" fill-opacity="0.6"/>
<path d="M33.0202 37.4742L37.6344 37.7968L37.5662 38.7724L32.952 38.4497L33.0202 37.4742ZM33.3462 32.8121L37.9604 33.1348L37.9015 33.9774L34.8569 35.7818L34.8546 35.8156L37.7587 36.0186L37.6905 36.9942L33.0763 36.6715L33.1362 35.8154L36.1773 34.0266L36.1802 33.9861L33.2783 33.7832L33.3462 32.8121ZM34.1946 32.2381L33.3903 32.1818L33.6553 28.3922L34.4596 28.4485L34.3608 29.8611L38.1707 30.1275L38.1032 31.0918L34.2934 30.8254L34.1946 32.2381ZM38.3131 28.0908L33.6989 27.7682L33.9163 24.659L34.7206 24.7152L34.5714 26.8488L35.6709 26.9257L35.8089 24.9521L36.6133 25.0083L36.4753 26.982L37.577 27.059L37.7268 24.9164L38.5311 24.9726L38.3131 28.0908ZM38.5847 24.206L33.9706 23.8834L34.0388 22.9078L37.8486 23.1742L37.987 21.1961L38.7913 21.2523L38.5847 24.206Z" fill="#7C669B"/>
<path opacity="0.971512" fill-rule="evenodd" clip-rule="evenodd" d="M5.99994 9.5L28.9999 3L27.6635 35.4559H3.54346L5.99994 9.5Z" fill="#7C669B"/>
<path opacity="0.971512" fill-rule="evenodd" clip-rule="evenodd" d="M4.88346 36.126H28.3335L27.6635 35.456H3.54346L4.88346 36.126Z" fill="#7B659A"/>
<path fill-rule="evenodd" clip-rule="evenodd" d="M29.5 3.5L29 3L27.6635 35.4559L28.3335 36.1259L29.5 3.5Z" fill="#A495BA"/>
<path opacity="0.3" fill-rule="evenodd" clip-rule="evenodd" d="M22.3356 8.61704L25.24 5.09424L26.7362 5.63853C27.2877 5.83915 27.6445 6.37532 27.6166 6.96153L26.3843 32.8399C26.3503 33.5544 25.7611 34.1161 25.0458 34.1161H5.0142C4.84355 34.1161 4.67448 34.0835 4.51606 34.0201C3.92531 33.7835 3.27797 33.1741 2.57405 32.1918C2.49822 32.086 2.27304 31.6246 2.34357 31.5125C4.80609 27.5974 11.448 19.9904 22.2694 8.6915C22.2924 8.66749 22.3144 8.64266 22.3356 8.61704Z" fill="white"/>
<path d="M5.43665 10.2592L24.5011 5.12649C25.2157 4.93409 25.951 5.35743 26.1434 6.07205C26.1825 6.21732 26.1969 6.36815 26.1859 6.5182L24.4018 30.9008C24.3517 31.5855 23.7922 32.1216 23.106 32.1424L3.73752 32.7293C2.9978 32.7517 2.37996 32.1702 2.35755 31.4305C2.35572 31.3702 2.35797 31.3097 2.3643 31.2497L4.45238 11.4129C4.51039 10.8618 4.90159 10.4033 5.43665 10.2592Z" fill="#CAC1D5"/>
<path d="M5.43665 10.2592L24.5011 5.12649C25.2157 4.93409 25.951 5.35743 26.1434 6.07205C26.1825 6.21732 26.1969 6.36815 26.1859 6.5182L24.4018 30.9008C24.3517 31.5855 23.7922 32.1216 23.106 32.1424L3.73752 32.7293C2.9978 32.7517 2.37996 32.1702 2.35755 31.4305C2.35572 31.3702 2.35797 31.3097 2.3643 31.2497L4.45238 11.4129C4.51039 10.8618 4.90159 10.4033 5.43665 10.2592Z" fill="url(#paint1_radial_6_1069)" fill-opacity="0.6"/>
<path d="M21.5412 26.1033L21.4681 27.1487L16.9653 25.2331L17.0532 23.976L21.7786 22.708L21.7055 23.7534L18.0649 24.6603L18.0624 24.6963L21.5412 26.1033ZM19.723 26.0418L19.8956 23.5725L20.6572 23.6257L20.4845 26.0951L19.723 26.0418ZM17.2033 21.83L17.2874 20.6268L20.4764 19.5729L20.4802 19.5189L17.4689 18.0314L17.553 16.8283L22.1672 17.1509L22.1011 18.0972L19.0978 17.8872L19.0951 17.9255L21.9923 19.328L21.9473 19.9724L18.8718 20.9572L18.8691 20.9955L21.8836 21.2063L21.8175 22.1526L17.2033 21.83ZM22.3378 14.7114L22.2234 16.3471L17.6092 16.0245L17.7246 14.3753C17.757 13.9112 17.8773 13.5181 18.0855 13.196C18.2922 12.8739 18.5738 12.6347 18.9303 12.4786C19.287 12.3209 19.7049 12.2588 20.1841 12.2923C20.6647 12.3259 21.0714 12.4456 21.4042 12.6515C21.737 12.8559 21.984 13.1336 22.1451 13.4845C22.3063 13.8338 22.3706 14.2428 22.3378 14.7114ZM21.4558 15.3131L21.4991 14.6936C21.5193 14.4052 21.4852 14.159 21.3968 13.9551C21.307 13.7496 21.1574 13.5897 20.9481 13.4755C20.7373 13.3596 20.46 13.2896 20.116 13.2656C19.775 13.2417 19.4929 13.2726 19.2696 13.3581C19.0464 13.4421 18.8768 13.5789 18.7609 13.7685C18.645 13.9582 18.577 14.1972 18.5568 14.4855L18.5133 15.1074L21.4558 15.3131Z" fill="#7C669B"/>
<defs>
<radialGradient id="paint0_radial_6_1069" cx="0" cy="0" r="1" gradientUnits="userSpaceOnUse" gradientTransform="translate(24.3611 2.9015) rotate(-90) scale(23.8326 32.2582)">
<stop stop-color="white"/>
<stop offset="1" stop-color="white" stop-opacity="0"/>
</radialGradient>
<radialGradient id="paint1_radial_6_1069" cx="0" cy="0" r="1" gradientUnits="userSpaceOnUse" gradientTransform="translate(8.57694 -6.77453) rotate(-90) scale(23.8326 32.2582)">
<stop stop-color="white"/>
<stop offset="1" stop-color="white" stop-opacity="0"/>
</radialGradient>
</defs>
</svg>
