<svg width="24" height="25" viewBox="0 0 24 25" fill="none" xmlns="http://www.w3.org/2000/svg">
<g clip-path="url(#clip0_6_523)">
<path d="M14.2679 10.6482C13.5719 10.6482 13.0219 11.2412 13.0219 11.9782C13.0219 12.7182 13.5839 13.3102 14.2679 13.3102C14.9629 13.3102 15.5129 12.7172 15.5129 11.9792C15.5129 11.2412 14.9509 10.6482 14.2679 10.6482ZM9.81189 10.6482C9.11589 10.6482 8.56689 11.2412 8.56689 11.9782C8.56689 12.7182 9.12789 13.3102 9.81189 13.3102C10.5079 13.3102 11.0569 12.7172 11.0569 11.9792C11.0689 11.2412 10.5069 10.6482 9.81189 10.6482Z" fill="#9CA3AF"/>
<path d="M20.1998 0.578125H3.84184C2.46284 0.578125 1.33984 1.69113 1.33984 3.05913V19.2781C1.33984 20.6461 2.46284 21.7591 3.84184 21.7591H17.6858L17.0388 19.5441L18.6008 20.9721L20.0778 22.3161L22.7148 24.5781V3.05913C22.7062 2.39793 22.4373 1.76678 21.9666 1.3024C21.4958 0.838021 20.8611 0.577805 20.1998 0.578125ZM15.4878 16.2511C15.4878 16.2511 15.0478 15.7311 14.6828 15.2831C16.2818 14.8351 16.8928 13.8551 16.8928 13.8551C16.4528 14.1452 15.9815 14.3847 15.4878 14.5691C14.9177 14.804 14.3244 14.9782 13.7178 15.0891C12.6721 15.2801 11.6001 15.276 10.5558 15.0771C9.94198 14.9641 9.34099 14.7899 8.76184 14.5571C8.45578 14.4403 8.15808 14.3027 7.87084 14.1451C7.83384 14.1211 7.79784 14.1091 7.76084 14.0851C7.73684 14.0731 7.72384 14.0611 7.71184 14.0611C7.49184 13.9401 7.36984 13.8551 7.36984 13.8551C7.36984 13.8551 7.95584 14.8111 9.50684 15.2711C9.13984 15.7311 8.68884 16.2631 8.68884 16.2631C5.99084 16.1791 4.96584 14.4361 4.96584 14.4361C4.96584 10.5751 6.72284 7.44013 6.72284 7.44013C8.48084 6.14513 10.1408 6.18213 10.1408 6.18213L10.2638 6.32713C8.06584 6.94413 7.06484 7.90013 7.06484 7.90013C7.06484 7.90013 7.33384 7.75513 7.78484 7.56113C9.09184 6.99313 10.1288 6.84713 10.5558 6.79913C10.6298 6.78713 10.6908 6.77513 10.7638 6.77513C11.582 6.66918 12.4098 6.66079 13.2298 6.75013C14.3898 6.88413 15.6348 7.22213 16.9038 7.90013C16.9038 7.90013 15.9398 6.99313 13.8638 6.37513L14.0358 6.18213C14.0358 6.18213 15.7078 6.14513 17.4538 7.44013C17.4538 7.44013 19.2118 10.5751 19.2118 14.4361C19.2118 14.4241 18.1858 16.1661 15.4878 16.2511Z" fill="#9CA3AF"/>
</g>
<defs>
<clipPath id="clip0_6_523">
<rect width="24" height="24" fill="white" transform="translate(0 0.578125)"/>
</clipPath>
</defs>
</svg>
