<svg width="24" height="25" viewBox="0 0 24 25" fill="none" xmlns="http://www.w3.org/2000/svg">
<g clip-path="url(#clip0_6_498)">
<path d="M24 12.6511C24 5.98312 18.628 0.578125 12 0.578125C5.372 0.578125 0 5.98312 0 12.6511C0 18.6781 4.388 23.6721 10.125 24.5781V16.1411H7.078V12.6511H10.125V9.99113C10.125 6.96613 11.915 5.29413 14.658 5.29413C15.97 5.29413 17.344 5.53013 17.344 5.53013V8.50112H15.83C14.34 8.50112 13.875 9.43213 13.875 10.3871V12.6511H17.203L16.671 16.1411H13.875V24.5781C19.613 23.6731 24 18.6781 24 12.6511Z" fill="#9CA3AF"/>
</g>
<defs>
<clipPath id="clip0_6_498">
<rect width="24" height="24" fill="white" transform="translate(0 0.578125)"/>
</clipPath>
</defs>
</svg>
