<svg width="24" height="25" viewBox="0 0 24 25" fill="none" xmlns="http://www.w3.org/2000/svg">
<g clip-path="url(#clip0_6_504)">
<path d="M11.995 2.74012C15.2 2.74012 15.576 2.75413 16.843 2.81113C18.014 2.86413 18.648 3.05912 19.071 3.22613C19.633 3.44513 20.033 3.70213 20.452 4.12112C20.872 4.54012 21.133 4.94012 21.348 5.50112C21.51 5.92613 21.709 6.55912 21.762 7.73112C21.819 8.99712 21.833 9.37313 21.833 12.5781C21.833 15.7831 21.819 16.1581 21.762 17.4261C21.709 18.5971 21.514 19.2301 21.348 19.6541C21.1562 20.1756 20.85 20.6474 20.452 21.0351C20.033 21.4551 19.633 21.7161 19.072 21.9301C18.648 22.0921 18.014 22.2921 16.842 22.3451C15.576 22.4021 15.2 22.4161 11.995 22.4161C8.79 22.4161 8.415 22.4021 7.148 22.3451C5.976 22.2921 5.343 22.0971 4.919 21.9301C4.39803 21.7384 3.92652 21.4326 3.539 21.0351C3.13958 20.649 2.83318 20.1771 2.643 19.6551C2.481 19.2301 2.281 18.5971 2.229 17.4251C2.171 16.1591 2.157 15.7831 2.157 12.5781C2.157 9.37313 2.171 8.99712 2.229 7.73012C2.281 6.55912 2.476 5.92612 2.643 5.50212C2.862 4.94012 3.119 4.54012 3.538 4.12112C3.92454 3.72196 4.39677 3.41592 4.919 3.22613C5.343 3.06413 5.976 2.86413 7.148 2.81113C8.414 2.74913 8.795 2.74012 11.995 2.74012ZM11.995 0.578125C8.738 0.578125 8.33 0.592125 7.048 0.649125C5.77 0.708125 4.9 0.911125 4.138 1.20812C3.33721 1.50887 2.61217 1.98165 2.014 2.59313C1.40556 3.19319 0.933524 3.91728 0.63 4.71613C0.333 5.47813 0.129 6.34912 0.07 7.63013C0.014 8.90812 0 9.31612 0 12.5731C0 15.8301 0.014 16.2401 0.071 17.5211C0.129 18.7971 0.333 19.6681 0.629 20.4351C0.933 21.2251 1.348 21.8921 2.014 22.5591C2.61416 23.1684 3.33862 23.6411 4.138 23.9451C4.9 24.2401 5.771 24.4451 7.052 24.5021C8.333 24.5591 8.738 24.5731 12 24.5731C15.262 24.5731 15.667 24.5591 16.948 24.5021C18.224 24.4451 19.095 24.2401 19.862 23.9451C20.6629 23.6441 21.3879 23.171 21.986 22.5591C22.5949 21.9589 23.0673 21.2344 23.371 20.4351C23.667 19.6731 23.871 18.8021 23.929 17.5211C23.986 16.2401 24 15.8351 24 12.5731C24 9.31112 23.986 8.90712 23.929 7.62612C23.871 6.34912 23.667 5.47813 23.371 4.71112C23.0702 3.91068 22.5974 3.18598 21.986 2.58812C21.3858 1.97885 20.6614 1.50611 19.862 1.20213C19.1 0.907125 18.229 0.702125 16.948 0.645125C15.662 0.592125 15.252 0.578125 11.995 0.578125Z" fill="#9CA3AF"/>
<path d="M11.995 6.41622C10.3605 6.41649 8.793 7.06606 7.6374 8.22203C6.4818 9.37801 5.83274 10.9457 5.83301 12.5802C5.83327 14.2148 6.48284 15.7822 7.63882 16.9378C8.79479 18.0934 10.3625 18.7425 11.997 18.7422C13.6315 18.742 15.199 18.0924 16.3546 16.9364C17.5102 15.7804 18.1593 14.2128 18.159 12.5782C18.1587 10.9437 17.5092 9.37622 16.3532 8.22062C15.1972 7.06502 13.6295 6.41596 11.995 6.41622ZM11.995 16.5732C11.4645 16.5816 10.9376 16.4844 10.445 16.2871C9.95237 16.0899 9.50394 15.7966 9.12579 15.4244C8.74763 15.0522 8.44732 14.6085 8.24233 14.1191C8.03733 13.6296 7.93176 13.1043 7.93176 12.5737C7.93176 12.0431 8.03733 11.5178 8.24233 11.0284C8.44732 10.539 8.74763 10.0952 9.12579 9.72302C9.50394 9.35081 9.95237 9.05754 10.445 8.86031C10.9376 8.66309 11.4645 8.56583 11.995 8.57422C13.0559 8.57422 14.0733 8.99565 14.8234 9.7458C15.5736 10.4959 15.995 11.5134 15.995 12.5742C15.995 13.6351 15.5736 14.6525 14.8234 15.4027C14.0733 16.1528 13.0559 16.5742 11.995 16.5742V16.5732ZM18.4 7.60722C18.5889 7.60722 18.776 7.57002 18.9505 7.49773C19.125 7.42543 19.2836 7.31947 19.4172 7.1859C19.5508 7.05232 19.6567 6.89374 19.729 6.71921C19.8013 6.54469 19.8385 6.35763 19.8385 6.16872C19.8385 5.97982 19.8013 5.79276 19.729 5.61823C19.6567 5.44371 19.5508 5.28513 19.4172 5.15155C19.2836 5.01797 19.125 4.91202 18.9505 4.83972C18.776 4.76743 18.5889 4.73022 18.4 4.73022C18.0185 4.73022 17.6526 4.88178 17.3828 5.15155C17.1131 5.42132 16.9615 5.78721 16.9615 6.16872C16.9615 6.55024 17.1131 6.91613 17.3828 7.1859C17.6526 7.45567 18.0185 7.60722 18.4 7.60722Z" fill="#9CA3AF"/>
</g>
<defs>
<clipPath id="clip0_6_504">
<rect width="24" height="24" fill="white" transform="translate(0 0.578125)"/>
</clipPath>
</defs>
</svg>
