<svg width="24" height="25" viewBox="0 0 24 25" fill="none" xmlns="http://www.w3.org/2000/svg">
<g clip-path="url(#clip0_6_515)">
<path d="M14.5282 16.6712C13.9932 17.2062 12.8362 17.3992 12.0212 17.3992C11.2072 17.3992 10.0502 17.2062 9.51422 16.6712C9.48526 16.6407 9.45037 16.6163 9.41168 16.5997C9.373 16.583 9.33133 16.5745 9.28922 16.5745C9.24711 16.5745 9.20545 16.583 9.16676 16.5997C9.12808 16.6163 9.09319 16.6407 9.06422 16.6712C9.03366 16.7002 9.00932 16.7351 8.99269 16.7738C8.97605 16.8124 8.96747 16.8541 8.96747 16.8962C8.96747 16.9383 8.97605 16.98 8.99269 17.0187C9.00932 17.0574 9.03366 17.0923 9.06422 17.1212C9.92122 17.9782 11.5502 18.0422 12.0432 18.0422C12.5142 18.0422 14.1642 17.9782 15.0212 17.1212C15.0518 17.0923 15.0761 17.0574 15.0928 17.0187C15.1094 16.98 15.118 16.9383 15.118 16.8962C15.118 16.8541 15.1094 16.8124 15.0928 16.7738C15.0761 16.7351 15.0518 16.7002 15.0212 16.6712C14.8502 16.5642 14.6362 16.5642 14.5282 16.6712ZM10.5002 13.8422C10.5048 13.6759 10.476 13.5105 10.4155 13.3555C10.355 13.2006 10.264 13.0593 10.148 12.9402C10.032 12.821 9.89323 12.7263 9.73996 12.6617C9.5867 12.5971 9.42203 12.5638 9.2557 12.564C9.08936 12.5641 8.92475 12.5976 8.77158 12.6625C8.61842 12.7273 8.47982 12.8222 8.36398 12.9416C8.24814 13.061 8.15742 13.2023 8.09717 13.3574C8.03692 13.5124 8.00838 13.678 8.01322 13.8442C8.02266 14.1679 8.15794 14.4752 8.39033 14.7007C8.62271 14.9262 8.93387 15.0522 9.2577 15.052C9.58152 15.0517 9.89248 14.9252 10.1245 14.6993C10.3565 14.4734 10.4913 14.1659 10.5002 13.8422Z" fill="#9CA3AF"/>
<path d="M12 0.578125C5.379 0.578125 0 5.95713 0 12.5781C0 19.1991 5.379 24.5781 12 24.5781C18.621 24.5781 24 19.1991 24 12.5781C24.021 5.95713 18.643 0.578125 12 0.578125ZM18.964 14.1851C18.986 14.3561 19.007 14.5281 19.007 14.7211C19.007 17.4211 15.878 19.6071 12 19.6071C8.121 19.6071 4.993 17.3991 4.993 14.6991C4.993 14.5281 5.014 14.3351 5.036 14.1641C4.731 14.0255 4.47203 13.8026 4.28969 13.5215C4.10735 13.2405 4.00925 12.9131 4.007 12.5781C4.007 11.6141 4.8 10.8211 5.764 10.8211C6.236 10.8211 6.664 11.0141 6.986 11.3141C8.207 10.4351 9.879 9.87813 11.743 9.83512L12.643 5.65712C12.6593 5.57875 12.7052 5.50965 12.771 5.46413C12.8052 5.441 12.8439 5.42523 12.8845 5.41783C12.9251 5.41043 12.9668 5.41155 13.007 5.42112L15.921 6.04213C16.136 5.63513 16.543 5.33512 17.036 5.33512C17.357 5.34801 17.6606 5.4846 17.8832 5.7163C18.1058 5.948 18.2301 6.25683 18.2301 6.57812C18.2301 6.89942 18.1058 7.20825 17.8832 7.43995C17.6606 7.67165 17.357 7.80824 17.036 7.82113C16.7142 7.81958 16.4053 7.69397 16.1738 7.47044C15.9423 7.24691 15.8059 6.9427 15.793 6.62113L13.179 6.06413L12.386 9.81413C14.229 9.87813 15.879 10.4351 17.078 11.2921C17.4 10.9921 17.828 10.7991 18.3 10.7991C19.264 10.7991 20.057 11.5921 20.057 12.5571C20.014 13.3071 19.586 13.9071 18.964 14.1851Z" fill="#9CA3AF"/>
<path d="M14.7641 12.5781C14.5978 12.5735 14.4323 12.6023 14.2774 12.6628C14.1224 12.7233 13.9812 12.8143 13.862 12.9303C13.7429 13.0463 13.6482 13.1851 13.5835 13.3384C13.5189 13.4916 13.4857 13.6563 13.4858 13.8226C13.486 13.989 13.5195 14.1536 13.5843 14.3067C13.6492 14.4599 13.7441 14.5985 13.8635 14.7144C13.9828 14.8302 14.1242 14.9209 14.2793 14.9812C14.4343 15.0414 14.5998 15.07 14.7661 15.0651C15.0898 15.0557 15.397 14.9204 15.6226 14.688C15.8481 14.4556 15.9741 14.1445 15.9738 13.8206C15.9736 13.4968 15.8471 13.1859 15.6212 12.9538C15.3953 12.7218 15.0878 12.587 14.7641 12.5781Z" fill="#9CA3AF"/>
</g>
<defs>
<clipPath id="clip0_6_515">
<rect width="24" height="24" fill="white" transform="translate(0 0.578125)"/>
</clipPath>
</defs>
</svg>
