<svg width="24" height="25" viewBox="0 0 24 25" fill="none" xmlns="http://www.w3.org/2000/svg">
<g clip-path="url(#clip0_6_520)">
<path d="M21.143 0.578125H2.857C2.09952 0.578919 1.37329 0.880179 0.837673 1.4158C0.302054 1.95142 0.000794143 2.67765 0 3.43513L0 21.7211C0.000794143 22.4786 0.302054 23.2048 0.837673 23.7405C1.37329 24.2761 2.09952 24.5773 2.857 24.5781H21.143C21.9005 24.5773 22.6267 24.2761 23.1623 23.7405C23.6979 23.2048 23.9992 22.4786 24 21.7211V3.43513C23.9992 2.67765 23.6979 1.95142 23.1623 1.4158C22.6267 0.880179 21.9005 0.578919 21.143 0.578125ZM18.86 11.0481C18.0856 11.1203 17.3061 10.98 16.6054 10.6424C15.9047 10.3048 15.3092 9.78271 14.883 9.13212V15.7251C14.8828 16.6886 14.5969 17.6304 14.0615 18.4315C13.5261 19.2325 12.7652 19.8568 11.875 20.2255C10.9848 20.5941 10.0053 20.6905 9.06028 20.5025C8.11529 20.3144 7.24728 19.8505 6.56598 19.1691C5.88467 18.4878 5.42068 17.6198 5.23266 16.6749C5.04464 15.7299 5.14104 14.7504 5.50967 13.8602C5.87829 12.97 6.5026 12.209 7.30364 11.6736C8.10468 11.1382 9.04649 10.8523 10.01 10.8521C10.112 10.8521 10.212 10.8621 10.312 10.8681V13.2681C10.212 13.2571 10.113 13.2381 10.01 13.2381C9.35041 13.2381 8.71783 13.5001 8.25143 13.9666C7.78502 14.433 7.523 15.0655 7.523 15.7251C7.523 16.3847 7.78502 17.0173 8.25143 17.4837C8.71783 17.9501 9.35041 18.2121 10.01 18.2121C11.384 18.2121 12.597 17.1301 12.597 15.7561L12.621 4.56013H14.918C15.023 5.55831 15.4756 6.48783 16.1965 7.18612C16.9175 7.88442 17.861 8.30705 18.862 8.38013V11.0481" fill="#9CA3AF"/>
</g>
<defs>
<clipPath id="clip0_6_520">
<rect width="24" height="24" fill="white" transform="translate(0 0.578125)"/>
</clipPath>
</defs>
</svg>
