<svg width="24" height="25" viewBox="0 0 24 25" fill="none" xmlns="http://www.w3.org/2000/svg">
<g clip-path="url(#clip0_6_501)">
<path d="M12 0.578125C5.37 0.578125 0 5.94812 0 12.5781C0 19.2081 5.37 24.5781 12 24.5781C18.63 24.5781 24 19.2081 24 12.5781C24 5.94812 18.63 0.578125 12 0.578125ZM18.024 10.3041C18.03 10.4301 18.03 10.5501 18.03 10.6761C18.03 14.4981 15.12 18.9081 9.798 18.9081C8.22556 18.9095 6.68607 18.4574 5.364 17.6061C6.89379 17.7914 8.43456 17.3619 9.648 16.4121C9.04436 16.4012 8.45931 16.2015 7.97503 15.841C7.49076 15.4804 7.13159 14.9773 6.948 14.4021C7.38192 14.4866 7.82944 14.4702 8.256 14.3541C7.60049 14.2225 7.01086 13.8678 6.58749 13.3504C6.16411 12.8329 5.93318 12.1847 5.934 11.5161V11.4801C6.324 11.6961 6.768 11.8281 7.242 11.8401C6.62975 11.4319 6.19595 10.8058 6.02877 10.0892C5.86159 9.37254 5.97359 8.61914 6.342 7.98212C7.0682 8.8765 7.97456 9.60799 9.0021 10.129C10.0296 10.65 11.1553 10.9489 12.306 11.0061C12.1616 10.3863 12.2255 9.73615 12.4879 9.15633C12.7503 8.57651 13.1965 8.09936 13.7575 7.79873C14.3184 7.4981 14.9628 7.39076 15.5909 7.49333C16.219 7.59591 16.7958 7.90266 17.232 8.36613C17.8792 8.23719 18.4999 7.99985 19.068 7.66412C18.8533 8.33525 18.401 8.90492 17.796 9.26612C18.3693 9.1959 18.9292 9.04227 19.458 8.81013C19.076 9.39212 18.5899 9.8986 18.024 10.3041Z" fill="#9CA3AF"/>
</g>
<defs>
<clipPath id="clip0_6_501">
<rect width="24" height="24" fill="white" transform="translate(0 0.578125)"/>
</clipPath>
</defs>
</svg>
