<svg width="24" height="25" viewBox="0 0 24 25" fill="none" xmlns="http://www.w3.org/2000/svg">
<g clip-path="url(#clip0_6_508)">
<path d="M23.495 6.72312C23.3576 6.21206 23.089 5.74576 22.7159 5.37041C22.3429 4.99505 21.8782 4.72367 21.368 4.58313C19.5 4.07813 12 4.07812 12 4.07812C12 4.07812 4.5 4.07813 2.618 4.58313C1.582 4.85513 0.778 5.67313 0.491 6.72312C0 8.60512 0 12.5331 0 12.5331C0 12.5331 0 16.4601 0.505 18.3421C0.642338 18.8532 0.910857 19.3196 1.28395 19.695C1.65703 20.0703 2.12174 20.3417 2.632 20.4821C4.5 20.9881 12 20.9881 12 20.9881C12 20.9881 19.5 20.9881 21.382 20.4831C22.418 20.2111 23.222 19.3931 23.509 18.3431C24 16.4611 24 12.5331 24 12.5331C24 12.5331 24 8.60612 23.495 6.72412V6.72312ZM9.545 16.1051V8.96012L15.818 12.5321L9.545 16.1051Z" fill="#9CA3AF"/>
</g>
<defs>
<clipPath id="clip0_6_508">
<rect width="24" height="24" fill="white" transform="translate(0 0.578125)"/>
</clipPath>
</defs>
</svg>
