<svg width="11" height="86" viewBox="0 0 11 86" fill="none" xmlns="http://www.w3.org/2000/svg">
<path d="M10.1536 80.6496C10.1536 81.3408 10.0427 81.9851 9.8208 82.5824C9.5904 83.1712 9.26613 83.6832 8.848 84.1184C8.42987 84.5536 7.9392 84.8949 7.376 85.1424C6.8128 85.3813 6.19413 85.5008 5.52 85.5008C4.84587 85.5008 4.2272 85.3813 3.664 85.1424C3.1008 84.8949 2.61013 84.5536 2.192 84.1184C1.77387 83.6747 1.45387 83.1584 1.232 82.5696C1.0016 81.9808 0.8864 81.3365 0.886399 80.6368C0.886399 79.8603 1.02293 79.1605 1.296 78.5376C1.56053 77.9061 1.95307 77.3771 2.4736 76.9504L3.7024 78.2816C3.35253 78.5888 3.09227 78.9301 2.9216 79.3056C2.7424 79.6811 2.6528 80.0907 2.6528 80.5344C2.6528 80.9525 2.72107 81.3365 2.8576 81.6864C2.99413 82.0363 3.1904 82.3392 3.4464 82.5952C3.7024 82.8512 4.00533 83.0517 4.3552 83.1968C4.70507 83.3333 5.09333 83.4016 5.52 83.4016C5.94667 83.4016 6.33493 83.3333 6.6848 83.1968C7.03467 83.0517 7.3376 82.8512 7.5936 82.5952C7.8496 82.3392 8.04587 82.0363 8.1824 81.6864C8.31893 81.3365 8.3872 80.9525 8.3872 80.5344C8.3872 80.0907 8.30187 79.6811 8.1312 79.3056C7.952 78.9301 7.6832 78.5888 7.3248 78.2816L8.5536 76.9504C9.07413 77.3771 9.47093 77.9061 9.744 78.5376C10.0171 79.1605 10.1536 79.8645 10.1536 80.6496ZM10.1536 71.3856C10.1536 72.0939 10.0384 72.7509 9.808 73.3568C9.5776 73.9541 9.25333 74.4747 8.8352 74.9184C8.41707 75.3536 7.9264 75.6949 7.3632 75.9424C6.8 76.1813 6.1856 76.3008 5.52 76.3008C4.8544 76.3008 4.24 76.1813 3.6768 75.9424C3.1136 75.6949 2.62293 75.3493 2.2048 74.9056C1.78667 74.4619 1.4624 73.9413 1.232 73.344C1.0016 72.7467 0.886399 72.0981 0.886399 71.3984C0.886399 70.6901 1.0016 70.0416 1.232 69.4528C1.4624 68.8555 1.78667 68.3392 2.2048 67.904C2.62293 67.4603 3.1136 67.1147 3.6768 66.8672C4.23147 66.6197 4.84587 66.496 5.52 66.496C6.1856 66.496 6.80427 66.6197 7.376 66.8672C7.9392 67.1147 8.42987 67.4603 8.848 67.904C9.2576 68.3392 9.5776 68.8555 9.808 69.4528C10.0384 70.0416 10.1536 70.6859 10.1536 71.3856ZM8.3872 71.3984C8.3872 70.9973 8.31893 70.6304 8.1824 70.2976C8.04587 69.9563 7.8496 69.6576 7.5936 69.4016C7.3376 69.1456 7.03467 68.9493 6.6848 68.8128C6.33493 68.6677 5.94667 68.5952 5.52 68.5952C5.09333 68.5952 4.70507 68.6677 4.3552 68.8128C4.00533 68.9493 3.7024 69.1456 3.4464 69.4016C3.1904 69.6491 2.99413 69.9435 2.8576 70.2848C2.72107 70.6261 2.6528 70.9973 2.6528 71.3984C2.6528 71.7995 2.72107 72.1707 2.8576 72.512C2.99413 72.8448 3.1904 73.1392 3.4464 73.3952C3.7024 73.6512 4.00533 73.8517 4.3552 73.9968C4.70507 74.1333 5.09333 74.2016 5.52 74.2016C5.93813 74.2016 6.3264 74.1333 6.6848 73.9968C7.03467 73.8517 7.3376 73.6555 7.5936 73.408C7.8496 73.152 8.04587 72.8533 8.1824 72.512C8.31893 72.1707 8.3872 71.7995 8.3872 71.3984ZM10 64.9376L1.04 64.9376L1.04 63.2224L7.3632 59.408L7.3632 60.3168L1.04 56.5664L1.04 54.864L10 54.8384L10 56.784L4.0224 56.7968L4.0224 56.4384L9.0528 59.4336L9.0528 60.368L4.0224 63.4272L4.0224 62.992L10 62.992L10 64.9376ZM10 52.7126L1.04 52.7126L1.04 50.9974L7.3632 47.183L7.3632 48.0918L1.04 44.3414L1.04 42.639L10 42.6134L10 44.559L4.0224 44.5718L4.0224 44.2134L9.0528 47.2086L9.0528 48.143L4.0224 51.2022L4.0224 50.767L10 50.767L10 52.7126ZM10.1536 36.5068C10.1536 37.7783 9.79946 38.7724 9.0912 39.4892C8.38293 40.206 7.37173 40.5644 6.0576 40.5644L1.04 40.5644L1.04 38.4908L5.9808 38.4908C6.83413 38.4908 7.44853 38.3159 7.824 37.966C8.19946 37.6161 8.3872 37.1255 8.3872 36.494C8.3872 35.8625 8.19946 35.3719 7.824 35.022C7.44853 34.6721 6.83413 34.4972 5.9808 34.4972L1.04 34.4972L1.04 32.4492L6.0576 32.4492C7.37173 32.4492 8.38293 32.8076 9.0912 33.5244C9.79946 34.2412 10.1536 35.2353 10.1536 36.5068ZM10 30.4001L1.04 30.4001L1.04 28.6849L7.4912 23.3985L7.4912 24.2305L1.04 24.2305L1.04 22.1825L10 22.1825L10 23.8849L3.5488 29.1841L3.5488 28.3521L10 28.3521L10 30.4001ZM10 20.0626L1.04 20.0626L1.04 17.989L10 17.989L10 20.0626ZM10 14.0066L2.7296 14.0066L2.7296 16.8738L1.04 16.8738L1.04 9.06579L2.7296 9.06579L2.7296 11.933L10 11.933L10 14.0066ZM10 5.8979L6.3392 5.8979L7.5936 5.4243L1.04 9.3667L1.04 7.1651L6.0704 4.1443L6.0704 5.4115L1.04 2.3779L1.04 0.342699L7.5936 4.2851L6.3392 3.8243L10 3.8243L10 5.8979Z" fill="white"/>
</svg>
