<svg width="11" height="98" viewBox="0 0 11 98" fill="none" xmlns="http://www.w3.org/2000/svg">
<path d="M10.1536 92.6496C10.1536 93.3408 10.0427 93.9851 9.8208 94.5824C9.5904 95.1712 9.26613 95.6832 8.848 96.1184C8.42987 96.5536 7.9392 96.8949 7.376 97.1424C6.8128 97.3813 6.19413 97.5008 5.52 97.5008C4.84587 97.5008 4.2272 97.3813 3.664 97.1424C3.1008 96.8949 2.61013 96.5536 2.192 96.1184C1.77387 95.6747 1.45387 95.1584 1.232 94.5696C1.0016 93.9808 0.8864 93.3365 0.886399 92.6368C0.886399 91.8603 1.02293 91.1605 1.296 90.5376C1.56053 89.9061 1.95307 89.3771 2.4736 88.9504L3.7024 90.2816C3.35253 90.5888 3.09227 90.9301 2.9216 91.3056C2.7424 91.6811 2.6528 92.0907 2.6528 92.5344C2.6528 92.9525 2.72107 93.3365 2.8576 93.6864C2.99413 94.0363 3.1904 94.3392 3.4464 94.5952C3.7024 94.8512 4.00533 95.0517 4.3552 95.1968C4.70507 95.3333 5.09333 95.4016 5.52 95.4016C5.94667 95.4016 6.33493 95.3333 6.6848 95.1968C7.03467 95.0517 7.3376 94.8512 7.5936 94.5952C7.8496 94.3392 8.04587 94.0363 8.1824 93.6864C8.31893 93.3365 8.3872 92.9525 8.3872 92.5344C8.3872 92.0907 8.30187 91.6811 8.1312 91.3056C7.952 90.9301 7.6832 90.5888 7.3248 90.2816L8.5536 88.9504C9.07413 89.3771 9.47093 89.9061 9.744 90.5376C10.0171 91.1605 10.1536 91.8645 10.1536 92.6496ZM10.1536 83.3856C10.1536 84.0939 10.0384 84.7509 9.808 85.3568C9.5776 85.9541 9.25333 86.4747 8.8352 86.9184C8.41707 87.3536 7.9264 87.6949 7.3632 87.9424C6.8 88.1813 6.1856 88.3008 5.52 88.3008C4.8544 88.3008 4.24 88.1813 3.6768 87.9424C3.1136 87.6949 2.62293 87.3493 2.2048 86.9056C1.78667 86.4619 1.4624 85.9413 1.232 85.344C1.0016 84.7467 0.886399 84.0981 0.886399 83.3984C0.886399 82.6901 1.0016 82.0416 1.232 81.4528C1.4624 80.8555 1.78667 80.3392 2.2048 79.904C2.62293 79.4603 3.1136 79.1147 3.6768 78.8672C4.23147 78.6197 4.84587 78.496 5.52 78.496C6.1856 78.496 6.80427 78.6197 7.376 78.8672C7.9392 79.1147 8.42987 79.4603 8.848 79.904C9.2576 80.3392 9.5776 80.8555 9.808 81.4528C10.0384 82.0416 10.1536 82.6859 10.1536 83.3856ZM8.3872 83.3984C8.3872 82.9973 8.31893 82.6304 8.1824 82.2976C8.04587 81.9563 7.8496 81.6576 7.5936 81.4016C7.3376 81.1456 7.03467 80.9493 6.6848 80.8128C6.33493 80.6677 5.94667 80.5952 5.52 80.5952C5.09333 80.5952 4.70507 80.6677 4.3552 80.8128C4.00533 80.9493 3.7024 81.1456 3.4464 81.4016C3.1904 81.6491 2.99413 81.9435 2.8576 82.2848C2.72107 82.6261 2.6528 82.9973 2.6528 83.3984C2.6528 83.7995 2.72107 84.1707 2.8576 84.512C2.99413 84.8448 3.1904 85.1392 3.4464 85.3952C3.7024 85.6512 4.00533 85.8517 4.3552 85.9968C4.70507 86.1333 5.09333 86.2016 5.52 86.2016C5.93813 86.2016 6.3264 86.1333 6.6848 85.9968C7.03467 85.8517 7.3376 85.6555 7.5936 85.408C7.8496 85.152 8.04587 84.8533 8.1824 84.512C8.31893 84.1707 8.3872 83.7995 8.3872 83.3984ZM10 76.9376L1.04 76.9376L1.04 75.2224L7.3632 71.408L7.3632 72.3168L1.04 68.5664L1.04 66.864L10 66.8384L10 68.784L4.0224 68.7968L4.0224 68.4384L9.0528 71.4336L9.0528 72.368L4.0224 75.4272L4.0224 74.992L10 74.992L10 76.9376ZM10 64.7126L1.04 64.7126L1.04 60.8342C1.04 60.0321 1.17226 59.3409 1.4368 58.7606C1.6928 58.1803 2.064 57.7323 2.5504 57.4166C3.0368 57.1009 3.61706 56.943 4.2912 56.943C4.9568 56.943 5.5328 57.1009 6.0192 57.4166C6.5056 57.7323 6.88106 58.1803 7.1456 58.7606C7.4016 59.3409 7.5296 60.0321 7.5296 60.8342L7.5296 63.5606L6.5952 62.639L10 62.639L10 64.7126ZM6.8256 62.639L5.84 63.5606L5.84 60.9494C5.84 60.3094 5.70346 59.8315 5.4304 59.5158C5.15733 59.2001 4.7776 59.0422 4.2912 59.0422C3.79626 59.0422 3.41226 59.2001 3.1392 59.5158C2.86613 59.8315 2.7296 60.3094 2.7296 60.9494L2.7296 63.5606L1.744 62.639L6.8256 62.639ZM10.1536 50.9856C10.1536 51.6939 10.0384 52.3509 9.808 52.9568C9.5776 53.5541 9.25333 54.0747 8.8352 54.5184C8.41706 54.9536 7.9264 55.2949 7.3632 55.5424C6.8 55.7813 6.1856 55.9008 5.52 55.9008C4.8544 55.9008 4.24 55.7813 3.6768 55.5424C3.1136 55.2949 2.62293 54.9493 2.2048 54.5056C1.78666 54.0619 1.4624 53.5413 1.232 52.944C1.0016 52.3467 0.886398 51.6981 0.886398 50.9984C0.886398 50.2901 1.0016 49.6416 1.232 49.0528C1.4624 48.4555 1.78666 47.9392 2.2048 47.504C2.62293 47.0603 3.1136 46.7147 3.6768 46.4672C4.23146 46.2197 4.84586 46.096 5.52 46.096C6.1856 46.096 6.80426 46.2197 7.376 46.4672C7.9392 46.7147 8.42986 47.0603 8.848 47.504C9.2576 47.9392 9.5776 48.4555 9.808 49.0528C10.0384 49.6416 10.1536 50.2859 10.1536 50.9856ZM8.3872 50.9984C8.3872 50.5973 8.31893 50.2304 8.1824 49.8976C8.04586 49.5563 7.8496 49.2576 7.5936 49.0016C7.3376 48.7456 7.03466 48.5493 6.6848 48.4128C6.33493 48.2677 5.94666 48.1952 5.52 48.1952C5.09333 48.1952 4.70506 48.2677 4.3552 48.4128C4.00533 48.5493 3.7024 48.7456 3.4464 49.0016C3.1904 49.2491 2.99413 49.5435 2.8576 49.8848C2.72106 50.2261 2.6528 50.5973 2.6528 50.9984C2.6528 51.3995 2.72106 51.7707 2.8576 52.112C2.99413 52.4448 3.1904 52.7392 3.4464 52.9952C3.7024 53.2512 4.00533 53.4517 4.3552 53.5968C4.70506 53.7333 5.09333 53.8016 5.52 53.8016C5.93813 53.8016 6.3264 53.7333 6.6848 53.5968C7.03466 53.4517 7.3376 53.2555 7.5936 53.008C7.8496 52.752 8.04586 52.4533 8.1824 52.112C8.31893 51.7707 8.3872 51.3995 8.3872 50.9984ZM10 44.5376L1.04 44.5376L1.04 42.8224L7.4912 37.536L7.4912 38.368L1.04 38.368L1.04 36.32L10 36.32L10 38.0224L3.5488 43.3216L3.5488 42.4896L10 42.4896L10 44.5376ZM4.6496 32.2929L4.6496 27.9793L6.2624 27.9793L6.2624 32.2929L4.6496 32.2929ZM8.336 32.1393L8.336 27.2625L10 27.2625L10 34.2001L1.04 34.2001L1.04 27.4289L2.704 27.4289L2.704 32.1393L8.336 32.1393ZM10 25.6126L1.04 25.6126L1.04 23.8974L7.4912 18.611L7.4912 19.443L1.04 19.443L1.04 17.395L10 17.395L10 19.0974L3.5488 24.3966L3.5488 23.5646L10 23.5646L10 25.6126ZM10 13.4191L2.7296 13.4191L2.7296 16.2863L1.04 16.2863L1.04 8.47829L2.7296 8.47829L2.7296 11.3455L10 11.3455L10 13.4191ZM10.1536 4.48109C10.1536 5.19789 10.0597 5.88483 9.872 6.54189C9.67573 7.19896 9.424 7.72803 9.1168 8.12909L7.5552 7.42509C7.82826 7.04109 8.0544 6.58883 8.2336 6.06829C8.40426 5.53923 8.4896 5.00589 8.4896 4.46829C8.4896 4.05869 8.4512 3.73016 8.3744 3.48269C8.28906 3.22669 8.17386 3.03896 8.0288 2.91949C7.88373 2.80003 7.71733 2.74029 7.5296 2.74029C7.29066 2.74029 7.10293 2.83416 6.9664 3.02189C6.82133 3.20963 6.70613 3.45709 6.6208 3.76429C6.52693 4.07149 6.4416 4.41283 6.3648 4.78829C6.27946 5.15523 6.17706 5.52643 6.0576 5.90189C5.93813 6.26883 5.78453 6.60589 5.5968 6.91309C5.40906 7.22029 5.1616 7.47203 4.8544 7.6683C4.5472 7.85603 4.15466 7.9499 3.6768 7.9499C3.1648 7.9499 2.69973 7.81336 2.2816 7.5403C1.85493 7.2587 1.51786 6.84056 1.2704 6.2859C1.0144 5.7227 0.886396 5.0187 0.886396 4.1739C0.886396 3.61069 0.954662 3.05603 1.0912 2.5099C1.2192 1.96376 1.41546 1.48163 1.68 1.06349L3.2544 1.70349C3.01546 2.12163 2.84053 2.53976 2.7296 2.95789C2.61013 3.37603 2.5504 3.78563 2.5504 4.18669C2.5504 4.58776 2.59733 4.9163 2.6912 5.1723C2.78506 5.42829 2.9088 5.61176 3.0624 5.7227C3.20746 5.83363 3.37813 5.88909 3.5744 5.88909C3.8048 5.88909 3.99253 5.79523 4.1376 5.60749C4.27413 5.41976 4.38506 5.17229 4.4704 4.86509C4.55573 4.55789 4.64106 4.22083 4.7264 3.85389C4.81173 3.47843 4.90986 3.10723 5.0208 2.74029C5.13173 2.36483 5.28106 2.02349 5.4688 1.71629C5.65653 1.40909 5.904 1.16163 6.2112 0.973895C6.5184 0.777628 6.90666 0.679495 7.376 0.679495C7.87946 0.679495 8.34026 0.820295 8.7584 1.10189C9.17653 1.38349 9.5136 1.80589 9.7696 2.36909C10.0256 2.92376 10.1536 3.62776 10.1536 4.48109Z" fill="white"/>
</svg>
