<svg width="11" height="79" viewBox="0 0 11 79" fill="none" xmlns="http://www.w3.org/2000/svg">
<path d="M10.1536 73.6112C10.1536 74.3195 10.0427 74.9723 9.8208 75.5696C9.5904 76.1584 9.26613 76.6747 8.848 77.1184C8.42987 77.5536 7.9392 77.8949 7.376 78.1424C6.8128 78.3813 6.19413 78.5008 5.52 78.5008C4.84587 78.5008 4.2272 78.3813 3.664 78.1424C3.1008 77.8949 2.61013 77.5493 2.192 77.1056C1.77387 76.6619 1.45387 76.1413 1.232 75.544C1.0016 74.9467 0.886399 74.2896 0.886399 73.5728C0.886399 72.7792 1.01867 72.0667 1.2832 71.4352C1.54773 70.7952 1.93173 70.2576 2.4352 69.8224L3.664 71.1536C3.32267 71.4779 3.07093 71.832 2.9088 72.216C2.73813 72.6 2.6528 73.0181 2.6528 73.4704C2.6528 73.9056 2.72107 74.3024 2.8576 74.6608C2.99413 75.0192 3.1904 75.3307 3.4464 75.5952C3.7024 75.8512 4.00533 76.0517 4.3552 76.1968C4.70507 76.3333 5.09333 76.4016 5.52 76.4016C5.93813 76.4016 6.32213 76.3333 6.672 76.1968C7.02187 76.0517 7.32907 75.8512 7.5936 75.5952C7.8496 75.3307 8.04587 75.0235 8.1824 74.6736C8.31893 74.3152 8.3872 73.9227 8.3872 73.496C8.3872 73.0864 8.3232 72.6896 8.1952 72.3056C8.05867 71.9131 7.83253 71.5333 7.5168 71.1664L9.0144 69.9888C9.38133 70.4752 9.66293 71.0427 9.8592 71.6912C10.0555 72.3312 10.1536 72.9712 10.1536 73.6112ZM8.7456 71.8832L5.3792 71.8832L5.3792 69.9888L9.0144 69.9888L8.7456 71.8832ZM10 69.2402L1.04 65.2466L1.04 63.1986L10 59.1922L10 61.3682L2.0896 64.645L2.0896 63.8258L10 67.1154L10 69.2402ZM8.08 67.2434L6.5056 66.693L6.5056 62.085L8.08 61.5218L8.08 67.2434ZM10 58.2626L1.04 58.2626L1.04 56.5474L7.3632 52.733L7.3632 53.6418L1.04 49.8914L1.04 48.189L10 48.1634L10 50.109L4.0224 50.1218L4.0224 49.7634L9.0528 52.7586L9.0528 53.693L4.0224 56.7522L4.0224 56.317L10 56.317L10 58.2626ZM10 46.0376L1.04 46.0376L1.04 43.964L10 43.964L10 46.0376ZM10 41.8376L1.04 41.8376L1.04 40.1224L7.4912 34.836L7.4912 35.668L1.04 35.668L1.04 33.62L10 33.62L10 35.3224L3.5488 40.6216L3.5488 39.7896L10 39.7896L10 41.8376ZM10.1536 27.1737C10.1536 27.882 10.0427 28.5348 9.8208 29.1321C9.5904 29.7209 9.26613 30.2372 8.848 30.6809C8.42986 31.1161 7.9392 31.4574 7.376 31.7049C6.8128 31.9438 6.19413 32.0633 5.52 32.0633C4.84586 32.0633 4.2272 31.9438 3.664 31.7049C3.1008 31.4574 2.61013 31.1118 2.192 30.6681C1.77386 30.2244 1.45386 29.7038 1.232 29.1065C1.0016 28.5092 0.886397 27.8521 0.886397 27.1353C0.886397 26.3417 1.01866 25.6292 1.2832 24.9977C1.54773 24.3577 1.93173 23.8201 2.4352 23.3849L3.664 24.7161C3.32266 25.0404 3.07093 25.3945 2.9088 25.7785C2.73813 26.1625 2.6528 26.5806 2.6528 27.0329C2.6528 27.4681 2.72106 27.8649 2.8576 28.2233C2.99413 28.5817 3.1904 28.8932 3.4464 29.1577C3.7024 29.4137 4.00533 29.6142 4.3552 29.7593C4.70506 29.8958 5.09333 29.9641 5.52 29.9641C5.93813 29.9641 6.32213 29.8958 6.672 29.7593C7.02186 29.6142 7.32906 29.4137 7.5936 29.1577C7.8496 28.8932 8.04586 28.586 8.1824 28.2361C8.31893 27.8777 8.3872 27.4852 8.3872 27.0585C8.3872 26.6489 8.3232 26.2521 8.1952 25.8681C8.05866 25.4756 7.83253 25.0958 7.5168 24.7289L9.0144 23.5513C9.38133 24.0377 9.66293 24.6052 9.8592 25.2537C10.0555 25.8937 10.1536 26.5337 10.1536 27.1737ZM8.7456 25.4457L5.3792 25.4457L5.3792 23.5513L9.0144 23.5513L8.7456 25.4457ZM10 18.0001L1.04 18.0001L1.04 14.1217C1.04 13.3196 1.17226 12.6284 1.4368 12.0481C1.6928 11.4678 2.064 11.0198 2.5504 10.7041C3.0368 10.3884 3.61706 10.2305 4.2912 10.2305C4.9568 10.2305 5.5328 10.3884 6.0192 10.7041C6.5056 11.0198 6.88106 11.4678 7.1456 12.0481C7.4016 12.6284 7.5296 13.3196 7.5296 14.1217L7.5296 16.8481L6.5952 15.9265L10 15.9265L10 18.0001ZM6.8256 15.9265L5.84 16.8481L5.84 14.2369C5.84 13.5969 5.70346 13.119 5.4304 12.8033C5.15733 12.4876 4.7776 12.3297 4.2912 12.3297C3.79626 12.3297 3.41226 12.4876 3.1392 12.8033C2.86613 13.119 2.7296 13.5969 2.7296 14.2369L2.7296 16.8481L1.744 15.9265L6.8256 15.9265ZM10.1536 4.3371C10.1536 5.0283 10.0427 5.67257 9.8208 6.2699C9.5904 6.8587 9.26613 7.3707 8.848 7.8059C8.42986 8.2411 7.9392 8.58243 7.376 8.8299C6.8128 9.06883 6.19413 9.1883 5.52 9.1883C4.84586 9.1883 4.2272 9.06883 3.664 8.8299C3.1008 8.58243 2.61013 8.2411 2.192 7.8059C1.77386 7.36217 1.45386 6.8459 1.232 6.2571C1.0016 5.6683 0.886396 5.02403 0.886396 4.3243C0.886396 3.54777 1.02293 2.84803 1.296 2.2251C1.56053 1.59363 1.95306 1.06457 2.4736 0.637899L3.7024 1.9691C3.35253 2.2763 3.09226 2.61763 2.9216 2.9931C2.7424 3.36857 2.6528 3.77817 2.6528 4.2219C2.6528 4.64003 2.72106 5.02403 2.8576 5.3739C2.99413 5.72377 3.1904 6.0267 3.4464 6.2827C3.7024 6.5387 4.00533 6.73923 4.3552 6.8843C4.70506 7.02083 5.09333 7.0891 5.52 7.0891C5.94666 7.0891 6.33493 7.02083 6.6848 6.8843C7.03466 6.73923 7.3376 6.5387 7.5936 6.2827C7.8496 6.0267 8.04586 5.72377 8.1824 5.3739C8.31893 5.02403 8.3872 4.64003 8.3872 4.2219C8.3872 3.77817 8.30186 3.36857 8.1312 2.9931C7.952 2.61763 7.6832 2.2763 7.3248 1.9691L8.5536 0.637899C9.07413 1.06457 9.47093 1.59363 9.744 2.2251C10.0171 2.84803 10.1536 3.55203 10.1536 4.3371Z" fill="white"/>
</svg>
