<svg width="8" height="21" viewBox="0 0 8 21" fill="none" xmlns="http://www.w3.org/2000/svg">
<path d="M4.21606 18.8705C4.21606 19.3192 4.39432 19.7496 4.71163 20.0669C5.02895 20.3842 5.45931 20.5625 5.90806 20.5625C6.35681 20.5625 6.78717 20.3842 7.10448 20.0669C7.4218 19.7496 7.60006 19.3192 7.60006 18.8705V2.6205C7.59996 2.2956 7.52294 1.97533 7.3753 1.68591C7.22766 1.39649 7.01359 1.14614 6.7506 0.955343C6.48762 0.764546 6.18321 0.638724 5.86226 0.588173C5.54131 0.537622 5.21296 0.563778 4.90406 0.664501L1.32406 1.8325C0.94996 1.95105 0.637736 2.21241 0.455192 2.5598C0.272648 2.90719 0.234526 3.31257 0.349102 3.68791C0.463678 4.06324 0.7217 4.37822 1.06714 4.56444C1.41257 4.75066 1.81753 4.79309 2.19406 4.6825L4.21606 4.1085V18.8705Z" fill="white"/>
</svg>
