<svg width="14" height="21" viewBox="0 0 14 21" fill="none" xmlns="http://www.w3.org/2000/svg">
<path d="M7.3138 20.5625C11.2718 20.5625 13.9998 17.9785 13.9998 14.3545V14.2985C13.9998 10.6465 11.2718 9.15849 8.3798 8.76449L13.1938 3.68049C13.4425 3.41838 13.6089 3.08911 13.6724 2.73342C13.736 2.37772 13.6938 2.01121 13.5512 1.67921C13.4087 1.34721 13.1719 1.0643 12.8702 0.865462C12.5685 0.666628 12.2151 0.560597 11.8538 0.560486H2.5658C2.16718 0.560486 1.78488 0.718837 1.50302 1.0007C1.22115 1.28257 1.0628 1.66487 1.0628 2.06349C1.0628 2.46211 1.22115 2.8444 1.50302 3.12627C1.78488 3.40813 2.16718 3.56649 2.5658 3.56649H9.3318L4.7878 8.54049C4.56643 8.78302 4.42033 9.08465 4.36726 9.4087C4.31419 9.73275 4.35644 10.0652 4.48888 10.3657C4.62132 10.6662 4.83823 10.9217 5.11322 11.1011C5.38821 11.2806 5.70943 11.3763 6.0378 11.3765H6.2738C8.9498 11.3765 10.6678 12.4725 10.6678 14.4105V14.4665C10.6678 16.2665 9.2478 17.4445 7.3678 17.4445C5.98564 17.4708 4.64046 16.9971 3.5798 16.1105C2.8438 15.5105 1.7598 15.4205 1.0738 16.0765C0.463799 16.6605 0.3898 17.6265 1.0098 18.2005C2.5538 19.6265 4.6198 20.5625 7.3098 20.5625H7.3138Z" fill="white"/>
</svg>
