<svg width="14" height="21" viewBox="0 0 14 21" fill="none" xmlns="http://www.w3.org/2000/svg">
<path fill-rule="evenodd" clip-rule="evenodd" d="M0.868 17.2125L6.692 12.0545C9.288 9.7745 10.234 8.5065 10.234 6.7325C10.234 4.7865 8.91 3.6605 7.178 3.6605C5.66 3.6605 4.604 4.3945 3.44 5.8585C3.29721 6.02831 3.11863 6.16443 2.91704 6.2571C2.71545 6.34977 2.49586 6.39669 2.274 6.3945C1.434 6.3945 0.76 5.6905 0.76 4.8165C0.76 4.4485 0.893999 4.0545 1.14 3.7445C2.68 1.7445 4.44 0.5625 7.42 0.5625C11.13 0.5625 13.676 2.9285 13.676 6.4505V6.5065C13.676 9.6065 12.106 11.2945 8.748 14.1385L4.848 17.5205H12.538C13.35 17.5205 14 18.1965 14 19.0405C14 19.8845 13.35 20.5625 12.538 20.5625H1.79C0.760001 20.5625 0 19.9425 0 18.9305C0 18.2525 0.3 17.6885 0.868 17.2105V17.2125Z" fill="white"/>
</svg>
