<svg width="22" height="18" viewBox="0 0 22 18" fill="none" xmlns="http://www.w3.org/2000/svg">
<path d="M1.02972 8.242C0.992965 8.09462 0.990263 7.9408 1.02183 7.79222C1.05339 7.64363 1.11838 7.50419 1.21188 7.38448C1.30538 7.26477 1.42492 7.16792 1.56142 7.10131C1.69793 7.03469 1.84783 7.00004 1.99972 7H19.4397C19.5916 7.00004 19.7415 7.03469 19.878 7.10131C20.0145 7.16792 20.1341 7.26477 20.2276 7.38448C20.3211 7.50419 20.3861 7.64363 20.4176 7.79222C20.4492 7.9408 20.4465 8.09462 20.4097 8.242L18.5987 15.485C18.4906 15.9177 18.2409 16.3018 17.8894 16.5763C17.5379 16.8508 17.1047 16.9999 16.6587 17H4.78072C4.33473 16.9999 3.90156 16.8508 3.55005 16.5763C3.19855 16.3018 2.94888 15.9177 2.84072 15.485L1.02972 8.243V8.242Z" stroke="white" stroke-width="2" stroke-linejoin="round"/>
<path d="M7.71973 11V13M13.7197 11V13M4.71973 7L8.71973 1M16.7197 7L12.7197 1" stroke="white" stroke-width="2" stroke-linecap="round"/>
</svg>
