<svg width="56" height="57" viewBox="0 0 56 57" fill="none" xmlns="http://www.w3.org/2000/svg">
<path d="M27.9255 0.846191C12.5745 0.846191 0.130859 13.2899 0.130859 28.6409C0.130859 43.9895 12.5745 56.4355 27.9255 56.4355C43.2765 56.4355 55.7202 43.9895 55.7202 28.6409C55.7202 13.2875 43.2765 0.846191 27.9255 0.846191ZM27.9255 4.34619C41.3422 4.34619 52.2202 15.2242 52.2202 28.6409C52.2202 42.0575 41.3422 52.9355 27.9255 52.9355C14.5089 52.9355 3.63086 42.0575 3.63086 28.6409C3.63086 15.2242 14.5089 4.34619 27.9255 4.34619Z" fill="white"/>
<path d="M27.9253 11.2645C28.3482 11.2645 28.7568 11.4177 29.0755 11.6956C29.3942 11.9736 29.6014 12.3576 29.659 12.7765L29.6753 13.0145V27.5559L39.1253 32.2832C39.5037 32.4722 39.8008 32.792 39.9617 33.1832C40.1225 33.5744 40.1363 34.0106 40.0003 34.4112L39.907 34.6329C39.7175 35.0108 39.3976 35.3075 39.0065 35.4679C38.6153 35.6283 38.1792 35.6417 37.779 35.5055L37.5596 35.4145L27.1413 30.2065C26.8879 30.0797 26.6691 29.8933 26.5037 29.6632C26.3383 29.4332 26.2312 29.1664 26.1916 28.8859L26.1753 28.6409V13.0145C26.1753 12.5504 26.3597 12.1053 26.6879 11.7771C27.016 11.4489 27.4612 11.2645 27.9253 11.2645Z" fill="white"/>
</svg>
