<svg width="56" height="57" viewBox="0 0 56 57" fill="none" xmlns="http://www.w3.org/2000/svg">
<path d="M42.0002 8.4812H14.0002C12.3293 8.4812 10.7269 9.14495 9.54542 10.3264C8.36394 11.5079 7.7002 13.1103 7.7002 14.7812V42.7812C7.7002 44.4521 8.36394 46.0545 9.54542 47.236C10.7269 48.4175 12.3293 49.0812 14.0002 49.0812H42.0002C43.6711 49.0812 45.2735 48.4175 46.455 47.236C47.6364 46.0545 48.3002 44.4521 48.3002 42.7812V14.7812C48.3002 13.1103 47.6364 11.5079 46.455 10.3264C45.2735 9.14495 43.6711 8.4812 42.0002 8.4812V8.4812ZM14.0002 11.7479H42.0002C42.8047 11.7479 43.5762 12.0674 44.1451 12.6363C44.7139 13.2052 45.0335 13.9767 45.0335 14.7812V42.7812C45.0335 43.5857 44.7139 44.3572 44.1451 44.9261C43.5762 45.495 42.8047 45.8145 42.0002 45.8145H14.0002C13.1957 45.8145 12.4242 45.495 11.8553 44.9261C11.2864 44.3572 10.9669 43.5857 10.9669 42.7812V14.7812C10.9669 13.9767 11.2864 13.2052 11.8553 12.6363C12.4242 12.0674 13.1957 11.7479 14.0002 11.7479V11.7479Z" fill="#313235"/>
<path d="M20.9998 1.4812C21.3948 1.48093 21.7765 1.6238 22.0743 1.88335C22.372 2.1429 22.5656 2.50154 22.6192 2.89287L22.6332 3.11453V10.1145C22.6353 10.5299 22.4791 10.9306 22.1963 11.2349C21.9135 11.5392 21.5254 11.7243 21.1109 11.7525C20.6965 11.7808 20.2868 11.65 19.9653 11.3869C19.6439 11.1238 19.4347 10.7481 19.3805 10.3362L19.3665 10.1145V3.11453C19.3665 2.68135 19.5386 2.2659 19.8449 1.95959C20.1512 1.65328 20.5667 1.4812 20.9998 1.4812V1.4812ZM34.9998 1.4812C35.3948 1.48093 35.7765 1.6238 36.0743 1.88335C36.372 2.1429 36.5656 2.50154 36.6192 2.89287L36.6332 3.11453V10.1145C36.6353 10.5299 36.4791 10.9306 36.1963 11.2349C35.9135 11.5392 35.5254 11.7243 35.1109 11.7525C34.6965 11.7808 34.2868 11.65 33.9653 11.3869C33.6439 11.1238 33.4347 10.7481 33.3805 10.3362L33.3665 10.1145V3.11453C33.3665 2.68135 33.5386 2.2659 33.8449 1.95959C34.1512 1.65328 34.5667 1.4812 34.9998 1.4812V1.4812ZM20.9998 45.8145C21.3948 45.8143 21.7765 45.9571 22.0743 46.2167C22.372 46.4762 22.5656 46.8349 22.6192 47.2262L22.6332 47.4479V54.4479C22.6353 54.8633 22.4791 55.2639 22.1963 55.5682C21.9135 55.8725 21.5254 56.0576 21.1109 56.0859C20.6965 56.1141 20.2868 55.9834 19.9653 55.7202C19.6439 55.4571 19.4347 55.0814 19.3805 54.6695L19.3665 54.4479V47.4479C19.3665 47.0147 19.5386 46.5992 19.8449 46.2929C20.1512 45.9866 20.5667 45.8145 20.9998 45.8145ZM34.9998 45.8145C35.3948 45.8143 35.7765 45.9571 36.0743 46.2167C36.372 46.4762 36.5656 46.8349 36.6192 47.2262L36.6332 47.4479V54.4479C36.6353 54.8633 36.4791 55.2639 36.1963 55.5682C35.9135 55.8725 35.5254 56.0576 35.1109 56.0859C34.6965 56.1141 34.2868 55.9834 33.9653 55.7202C33.6439 55.4571 33.4347 55.0814 33.3805 54.6695L33.3665 54.4479V47.4479C33.3665 47.0147 33.5386 46.5992 33.8449 46.2929C34.1512 45.9866 34.5667 45.8145 34.9998 45.8145ZM53.6665 20.1479C54.0819 20.1457 54.4825 20.3019 54.7868 20.5847C55.0911 20.8675 55.2763 21.2557 55.3045 21.6701C55.3327 22.0846 55.202 22.4942 54.9389 22.8157C54.6758 23.1372 54.3 23.3463 53.8882 23.4005L53.6665 23.4145H46.6665C46.2511 23.4167 45.8505 23.2605 45.5462 22.9777C45.2419 22.6949 45.0568 22.3067 45.0285 21.8923C45.0003 21.4778 45.131 21.0682 45.3941 20.7467C45.6573 20.4252 46.033 20.2161 46.4448 20.1619L46.6665 20.1479H53.6665ZM53.6665 31.8145C54.0819 31.8124 54.4825 31.9686 54.7868 32.2514C55.0911 32.5342 55.2763 32.9223 55.3045 33.3368C55.3327 33.7513 55.202 34.1609 54.9389 34.4824C54.6758 34.8038 54.3 35.013 53.8882 35.0672L53.6665 35.0812H46.6665C46.2511 35.0833 45.8505 34.9271 45.5462 34.6443C45.2419 34.3615 45.0568 33.9734 45.0285 33.5589C45.0003 33.1445 45.131 32.7348 45.3941 32.4134C45.6573 32.0919 46.033 31.8828 46.4448 31.8285L46.6665 31.8145H53.6665ZM9.33318 20.1479C9.74859 20.1457 10.1492 20.3019 10.4535 20.5847C10.7578 20.8675 10.9429 21.2557 10.9712 21.6701C10.9994 22.0846 10.8687 22.4942 10.6056 22.8157C10.3424 23.1372 9.96671 23.3463 9.55485 23.4005L9.33318 23.4145H2.33318C1.91776 23.4167 1.51714 23.2605 1.21284 22.9777C0.908542 22.6949 0.723434 22.3067 0.695189 21.8923C0.666944 21.4778 0.797684 21.0682 1.0608 20.7467C1.32392 20.4252 1.69965 20.2161 2.11151 20.1619L2.33318 20.1479H9.33318ZM9.33318 31.8145C9.74859 31.8124 10.1492 31.9686 10.4535 32.2514C10.7578 32.5342 10.9429 32.9223 10.9712 33.3368C10.9994 33.7513 10.8687 34.1609 10.6056 34.4824C10.3424 34.8038 9.96671 35.013 9.55485 35.0672L9.33318 35.0812H2.33318C1.91776 35.0833 1.51714 34.9271 1.21284 34.6443C0.908542 34.3615 0.723434 33.9734 0.695189 33.5589C0.666944 33.1445 0.797684 32.7348 1.0608 32.4134C1.32392 32.0919 1.69965 31.8828 2.11151 31.8285L2.33318 31.8145H9.33318Z" fill="#313235"/>
</svg>
