<svg width="20" height="21" viewBox="0 0 20 21" fill="none" xmlns="http://www.w3.org/2000/svg">
<path d="M9.16659 4.66664H4.99992C4.55789 4.66664 4.13397 4.84223 3.82141 5.15479C3.50885 5.46736 3.33325 5.89128 3.33325 6.33331V15.5C3.33325 15.942 3.50885 16.3659 3.82141 16.6785C4.13397 16.991 4.55789 17.1666 4.99992 17.1666H14.1666C14.6086 17.1666 15.0325 16.991 15.3451 16.6785C15.6577 16.3659 15.8333 15.942 15.8333 15.5V11.3333M14.6549 3.48831C14.8087 3.32912 14.9926 3.20215 15.1959 3.1148C15.3993 3.02746 15.618 2.98148 15.8393 2.97956C16.0605 2.97763 16.28 3.0198 16.4848 3.1036C16.6897 3.1874 16.8758 3.31116 17.0322 3.46765C17.1887 3.62414 17.3125 3.81022 17.3963 4.01505C17.4801 4.21988 17.5223 4.43934 17.5203 4.66064C17.5184 4.88194 17.4724 5.10064 17.3851 5.30398C17.2977 5.50732 17.1708 5.69123 17.0116 5.84497L9.85659 13H7.49992V10.6433L14.6549 3.48831Z" stroke="#91919C" stroke-width="1.66667" stroke-linecap="round" stroke-linejoin="round"/>
</svg>
