<svg width="48" height="49" viewBox="0 0 48 49" fill="none" xmlns="http://www.w3.org/2000/svg">
<path d="M12.76 16.1396C13.526 16.1396 14.16 16.7116 14.262 17.4516L14.276 17.6576V20.4036C14.2726 20.786 14.1251 21.1531 13.8628 21.4313C13.6005 21.7096 13.2429 21.8787 12.8614 21.9047C12.4799 21.9307 12.1026 21.8118 11.805 21.5717C11.5073 21.3316 11.3113 20.988 11.256 20.6096L11.242 20.4036V17.6576C11.242 16.8196 11.922 16.1396 12.758 16.1396H12.76ZM12.76 25.0596C13.526 25.0596 14.16 25.6316 14.262 26.3716L14.276 26.5776V29.3236C14.2726 29.706 14.1251 30.0731 13.8628 30.3513C13.6005 30.6296 13.2429 30.7987 12.8614 30.8247C12.4799 30.8507 12.1026 30.7318 11.805 30.4917C11.5073 30.2516 11.3113 29.908 11.256 29.5296L11.242 29.3236V26.5776C11.242 25.7396 11.922 25.0596 12.758 25.0596H12.76ZM20.214 23.4376C20.2141 23.8043 20.0815 24.1585 19.8407 24.435C19.5999 24.7114 19.2672 24.8914 18.904 24.9416L18.698 24.9556H15.952C15.5696 24.9523 15.2026 24.8047 14.9243 24.5424C14.646 24.2802 14.477 23.9225 14.451 23.541C14.4249 23.1595 14.5439 22.7822 14.784 22.4846C15.0241 22.187 15.3676 21.9909 15.746 21.9356L15.952 21.9216H18.698C19.536 21.9216 20.214 22.6016 20.214 23.4376ZM11.084 23.4376C11.084 23.8046 10.9511 24.1591 10.7099 24.4356C10.4687 24.7121 10.1355 24.8919 9.77202 24.9416L9.56602 24.9556H6.82002C6.43763 24.9523 6.07061 24.8047 5.79232 24.5424C5.51403 24.2802 5.34498 23.9225 5.31895 23.541C5.29293 23.1595 5.41185 22.7822 5.65195 22.4846C5.89205 22.187 6.23563 21.9909 6.61402 21.9356L6.82002 21.9216H9.56602C10.404 21.9216 11.082 22.6016 11.082 23.4376H11.084ZM39.52 24.5116C39.6609 24.3707 39.7727 24.2035 39.849 24.0194C39.9252 23.8352 39.9645 23.6379 39.9645 23.4386C39.9645 23.2394 39.9252 23.0421 39.849 22.8579C39.7727 22.6738 39.6609 22.5066 39.52 22.3656C39.3791 22.2247 39.2118 22.113 39.0277 22.0367C38.8436 21.9604 38.6463 21.9212 38.447 21.9212C38.2477 21.9212 38.0504 21.9604 37.8663 22.0367C37.6822 22.113 37.5149 22.2247 37.374 22.3656C37.0894 22.65 36.9295 23.0357 36.9293 23.4379C36.9291 23.8402 37.0887 24.2261 37.373 24.5106C37.6573 24.7952 38.043 24.9552 38.4453 24.9554C38.8476 24.9556 39.2334 24.796 39.518 24.5116H39.52ZM35.942 28.0876C36.0829 27.9469 36.1947 27.7797 36.271 27.5957C36.3473 27.4118 36.3867 27.2145 36.3868 27.0154C36.3869 26.8162 36.3477 26.6189 36.2716 26.4349C36.1954 26.2508 36.0838 26.0836 35.943 25.9426C35.8022 25.8017 35.6351 25.6899 35.4511 25.6136C35.2671 25.5373 35.0699 25.498 34.8707 25.4979C34.6715 25.4978 34.4743 25.537 34.2902 25.6131C34.1062 25.6892 33.9389 25.8009 33.798 25.9416C33.5134 26.226 33.3535 26.6117 33.3533 27.0139C33.3531 27.4162 33.5127 27.8021 33.797 28.0866C34.0813 28.3712 34.467 28.5312 34.8693 28.5314C35.2716 28.5316 35.6574 28.372 35.942 28.0876ZM35.942 20.9336C36.0985 20.7968 36.2252 20.6293 36.3142 20.4414C36.4033 20.2536 36.4528 20.0495 36.4597 19.8417C36.4667 19.634 36.4309 19.427 36.3545 19.2336C36.2782 19.0403 36.163 18.8647 36.016 18.7177C35.869 18.5707 35.6934 18.4555 35.5 18.3791C35.3067 18.3028 35.0997 18.267 34.892 18.2739C34.6842 18.2809 34.4801 18.3304 34.2922 18.4195C34.1044 18.5085 33.9369 18.6352 33.8 18.7916C33.5343 19.0797 33.3902 19.4593 33.398 19.8512C33.4058 20.243 33.5648 20.6167 33.8418 20.8939C34.1188 21.1712 34.4923 21.3305 34.8841 21.3387C35.2759 21.3468 35.6557 21.2031 35.944 20.9376L35.942 20.9336ZM32.366 24.5116C32.5069 24.3709 32.6187 24.2037 32.695 24.0197C32.7713 23.8358 32.8107 23.6385 32.8108 23.4394C32.8109 23.2402 32.7717 23.0429 32.6956 22.8589C32.6194 22.6748 32.5078 22.5076 32.367 22.3666C32.2262 22.2257 32.0591 22.1139 31.8751 22.0376C31.6911 21.9613 31.4939 21.922 31.2947 21.9219C31.0955 21.9218 30.8983 21.961 30.7142 22.0371C30.5302 22.1132 30.3629 22.2249 30.222 22.3656C29.9374 22.65 29.7775 23.0357 29.7773 23.4379C29.7771 23.8402 29.9367 24.2261 30.221 24.5106C30.5053 24.7952 30.891 24.9552 31.2933 24.9554C31.6956 24.9556 32.0814 24.796 32.366 24.5116Z" fill="#313235"/>
<path d="M35.24 10.5938H12.76C6.472 10.5938 0 15.0897 0 24.1297C0 34.1337 11.14 39.6377 18.086 36.0737L19.07 35.5817C19.38 35.4317 19.674 35.2938 19.95 35.1678L20.736 34.8278C22.096 34.2678 23.004 34.0517 23.652 34.0337H24.386C24.952 34.0497 25.748 34.2318 26.906 34.6838L27.646 34.9897C28.038 35.1597 28.466 35.3557 28.93 35.5817L29.914 36.0737C36.862 39.6377 48 34.1337 48 24.1297C48 15.0897 41.526 10.5938 35.24 10.5938ZM12.76 13.6278H35.24C40.036 13.6278 44.966 17.0518 44.966 24.1278C44.966 31.7078 36.348 35.9657 31.3 33.3737C27.992 31.6737 25.944 31.0417 24.43 30.9998H23.608C22.054 31.0398 20.008 31.6757 16.7 33.3737C11.652 35.9657 3.034 31.7057 3.034 24.1297C3.034 17.0497 7.964 13.6298 12.758 13.6298L12.76 13.6278Z" fill="#313235"/>
</svg>
