<svg width="56" height="57" viewBox="0 0 56 57" fill="none" xmlns="http://www.w3.org/2000/svg">
<path fill-rule="evenodd" clip-rule="evenodd" d="M33.7282 28.9045C33.7101 29.6636 33.5412 30.4114 33.2315 31.1047C32.9218 31.798 32.4775 32.4227 31.9242 32.9428C31.371 33.4628 30.7199 33.8678 30.0089 34.134C29.2978 34.4003 28.5409 34.5226 27.7822 34.4938C27.0235 34.4651 26.278 34.2858 25.5891 33.9665C24.9003 33.6472 24.2817 33.1942 23.7694 32.6337C23.2572 32.0733 22.8613 31.4167 22.605 30.702C22.3487 29.9873 22.2369 29.2288 22.2762 28.4705C22.3542 26.9665 23.0212 25.5536 24.1328 24.5375C25.2444 23.5214 26.7113 22.9837 28.2162 23.0407C29.7212 23.0978 31.1432 23.7449 32.1747 24.8423C33.2062 25.9396 33.7643 27.3989 33.7282 28.9045Z" fill="white"/>
<path fill-rule="evenodd" clip-rule="evenodd" d="M40.726 38.6275L40.8357 38.7348C41.0094 38.9075 41.1471 39.1129 41.2409 39.3392C41.3346 39.5655 41.3825 39.8082 41.3817 40.0531C41.3844 40.4228 41.2769 40.7849 41.0729 41.0932C40.8689 41.4015 40.5777 41.642 40.2363 41.7839C39.895 41.9259 39.5191 41.963 39.1567 41.8903C38.7942 41.8177 38.4616 41.6387 38.2013 41.3761L38.0753 41.2501C37.4268 40.6109 36.6068 40.1737 35.7146 39.9914C34.8225 39.8092 33.8966 39.8898 33.0493 40.2235L32.4193 40.3635L31.8173 40.8208L31.654 40.9375L31.528 41.0378L31.4067 41.1498C30.6365 41.8541 30.1192 42.792 29.9343 43.8191L29.9087 43.9661L29.8947 44.1178L29.8783 44.3208L29.8643 44.4771V44.9391C29.8353 45.4135 29.6263 45.859 29.2801 46.1846C28.9339 46.5103 28.4765 46.6916 28.0012 46.6916C27.5259 46.6916 27.0685 46.5103 26.7223 46.1846C26.3761 45.859 26.1671 45.4135 26.138 44.9391V44.7711C26.1347 43.8512 25.8632 42.9523 25.3568 42.1843C24.8503 41.4164 24.1309 40.8128 23.2867 40.4475C22.4191 40.0634 21.4559 39.9497 20.5227 40.1212C19.5895 40.2927 18.7297 40.7414 18.0553 41.4088L17.948 41.5161C17.7758 41.6906 17.5705 41.829 17.3441 41.9231C17.1177 42.0173 16.8748 42.0653 16.6297 42.0645C16.2605 42.0681 15.8986 41.9614 15.5903 41.7581C15.2821 41.5548 15.0415 41.2642 14.8994 40.9234C14.7573 40.5826 14.7202 40.2071 14.7927 39.8451C14.8653 39.483 15.0442 39.1509 15.3067 38.8911L15.4327 38.7698C15.4723 38.7301 15.491 38.6765 15.5237 38.6415C15.778 38.3685 15.9857 38.0721 16.163 37.7548C16.2307 37.6358 16.2843 37.5145 16.3427 37.3908C16.4687 37.1108 16.5667 36.8238 16.6367 36.5251C16.66 36.4178 16.695 36.3151 16.7137 36.2078C16.772 35.8438 16.8 35.4728 16.7697 35.1018H16.751C16.6712 33.9091 16.1416 32.7912 15.2693 31.9739C14.397 31.1566 13.247 30.7009 12.0517 30.6988H11.7437C11.2608 30.6836 10.8027 30.4816 10.4659 30.1353C10.129 29.789 9.93974 29.3255 9.93793 28.8424C9.93611 28.3593 10.1219 27.8944 10.4561 27.5456C10.7904 27.1967 11.2469 26.9913 11.7297 26.9725H11.9467C13.86 26.9258 15.5493 25.7218 16.275 23.8855C16.6356 23.0263 16.7331 22.0795 16.5554 21.1649C16.3776 20.2503 15.9325 19.409 15.2763 18.7475L15.1667 18.6425C14.9926 18.4696 14.8545 18.2641 14.7602 18.0376C14.666 17.8111 14.6175 17.5683 14.6175 17.323C14.6175 17.0777 14.666 16.8348 14.7602 16.6084C14.8545 16.3819 14.9926 16.1763 15.1667 16.0035C15.3388 15.8291 15.5438 15.6907 15.7698 15.5961C15.9958 15.5015 16.2384 15.4527 16.4834 15.4525C16.7284 15.4523 16.971 15.5007 17.1971 15.5948C17.4233 15.689 17.6286 15.8271 17.801 16.0011L17.927 16.1248C18.5748 16.7643 19.3945 17.2018 20.2864 17.3841C21.1783 17.5664 22.1039 17.4856 22.9507 17.1515L23.5807 17.0091L24.185 16.5541L24.3437 16.4351L24.4743 16.3371L24.5957 16.2251C25.3659 15.5222 25.8826 14.5847 26.0657 13.5581L26.0937 13.4088L26.1053 13.2595L26.124 13.0541L26.138 12.9001V12.4335C26.1551 11.9507 26.3589 11.4935 26.7064 11.158C27.054 10.8226 27.5181 10.6351 28.0012 10.6351C28.4842 10.6351 28.9484 10.8226 29.2959 11.158C29.6435 11.4935 29.8473 11.9507 29.8643 12.4335V12.6038C29.8667 13.5233 30.1372 14.4222 30.6429 15.1902C31.1485 15.9582 31.8673 16.5619 32.711 16.9275C33.3177 17.1935 33.964 17.3311 34.6243 17.3311C35.868 17.3311 37.037 16.8575 37.947 15.9661L38.052 15.8588C38.2247 15.6848 38.43 15.5468 38.6563 15.4525C38.8826 15.3583 39.1252 15.3098 39.3703 15.3098C39.6154 15.3098 39.8581 15.3583 40.0844 15.4525C40.3106 15.5468 40.516 15.6848 40.6887 15.8588C40.8619 16.031 40.9994 16.2357 41.0935 16.4611C41.1876 16.6865 41.2364 16.9282 41.237 17.1725C41.2344 17.6644 41.0383 18.1354 40.691 18.4838L40.5697 18.6075C40.53 18.6471 40.5113 18.6961 40.4763 18.7358C40.1373 19.105 39.8614 19.5276 39.6597 19.9865C39.5333 20.2638 39.4348 20.553 39.3657 20.8498C39.34 20.9571 39.305 21.0598 39.2887 21.1695C39.2253 21.5337 39.2049 21.9042 39.228 22.2731L39.2513 22.2708C39.291 22.7935 39.396 23.3138 39.613 23.8085C39.9768 24.658 40.5815 25.3823 41.3524 25.8919C42.1233 26.4015 43.0266 26.6742 43.9507 26.6761H44.2587C44.7415 26.6913 45.1996 26.8933 45.5365 27.2396C45.8733 27.5859 46.0626 28.0495 46.0644 28.5326C46.0662 29.0156 45.8805 29.4806 45.5462 29.8294C45.212 30.1782 44.7554 30.3837 44.2727 30.4025H44.0557C42.14 30.4468 40.453 31.6555 39.725 33.4918C39.3661 34.3506 39.2696 35.2965 39.4477 36.2101C39.6259 37.1237 40.0707 37.9641 40.726 38.6251M44.1327 33.9001H44.2587C45.6534 33.859 46.9772 33.276 47.9492 32.2749C48.9211 31.2739 49.4648 29.9335 49.4648 28.5381C49.4648 27.1428 48.9211 25.8024 47.9492 24.8013C46.9772 23.8003 45.6534 23.2173 44.2587 23.1761H43.9507C43.7118 23.1734 43.4788 23.1015 43.2799 22.9689C43.0811 22.8364 42.9251 22.649 42.8307 22.4295C42.7747 22.3011 42.7957 22.1681 42.7817 22.0328C42.765 21.8751 42.7752 21.7157 42.812 21.5615C42.8515 21.4253 42.9165 21.2979 43.0033 21.1858C43.0267 21.1485 43.036 21.0995 43.071 21.0668L43.1643 20.9711C43.6629 20.4735 44.0584 19.8825 44.3282 19.2319C44.5981 18.5813 44.737 17.8838 44.737 17.1795V17.1678C44.7358 16.1073 44.4203 15.0709 43.8306 14.1895C43.2408 13.3081 42.4031 12.6213 41.4232 12.2156C40.4434 11.8099 39.3653 11.7036 38.3251 11.9102C37.2849 12.1167 36.3292 12.6269 35.5787 13.3761L35.469 13.4835C35.2941 13.6517 35.0728 13.7637 34.8336 13.8049C34.5945 13.8461 34.3484 13.8146 34.1273 13.7145C34.0807 13.6981 34.0643 13.6678 34.0317 13.6445C33.836 13.5454 33.6707 13.3953 33.5532 13.2101C33.4358 13.0249 33.3705 12.8114 33.3643 12.5921V12.4358C33.3351 11.0328 32.7572 9.69708 31.7546 8.71518C30.752 7.73327 29.4045 7.18335 28.0012 7.18335C26.5978 7.18335 25.2504 7.73327 24.2478 8.71518C23.2452 9.69708 22.6673 11.0328 22.638 12.4358V12.7438L22.6193 12.9468C22.5722 13.2139 22.4376 13.4576 22.2367 13.6398L22.078 13.7611L21.959 13.7845L21.8423 13.8241L21.7303 13.8708C21.505 13.9692 21.2555 13.9983 21.0136 13.9542C20.7717 13.9102 20.5485 13.795 20.3723 13.6235L20.279 13.5278C19.7846 13.0126 19.1923 12.6012 18.5369 12.3178C17.8815 12.0343 17.1761 11.8846 16.4621 11.8772C15.7481 11.8698 15.0397 12.0051 14.3786 12.2749C13.7175 12.5448 13.1169 12.9439 12.612 13.4488C12.1071 13.9537 11.708 14.5543 11.4381 15.2154C11.1683 15.8765 11.033 16.5849 11.0404 17.2989C11.0478 18.0129 11.1975 18.7183 11.481 19.3737C11.7644 20.0291 12.1758 20.6214 12.691 21.1158L12.8007 21.2231C12.9684 21.3988 13.0802 21.6204 13.1217 21.8597C13.1633 22.099 13.1327 22.3452 13.034 22.5671C12.817 23.1435 12.3713 23.4631 11.865 23.4748H11.7437C10.3548 23.525 9.03957 24.112 8.07475 25.1123C7.10994 26.1126 6.5708 27.4482 6.5708 28.838C6.5708 30.2278 7.10994 31.5633 8.07475 32.5636C9.03957 33.5639 10.3548 34.151 11.7437 34.2011H12.0517C12.2901 34.2032 12.5228 34.2747 12.7213 34.4069C12.9198 34.5391 13.0755 34.7262 13.1693 34.9455C13.2277 35.0761 13.2067 35.2068 13.2207 35.3421C13.2363 35.5006 13.2261 35.6606 13.1903 35.8158C13.1498 35.9502 13.085 36.0759 12.999 36.1868C12.971 36.2265 12.9663 36.2731 12.929 36.3105L12.8357 36.4038C12.3375 36.902 11.9424 37.4935 11.673 38.1445C11.4035 38.7955 11.265 39.4933 11.2653 40.1978V40.2095C11.2666 41.27 11.582 42.3064 12.1718 43.1878C12.7616 44.0691 13.5993 44.756 14.5791 45.1617C15.559 45.5674 16.6371 45.6736 17.6773 45.4671C18.7175 45.2605 19.6732 44.7504 20.4237 44.0011L20.5333 43.8938C20.7582 43.6754 21.0598 43.5539 21.3733 43.5555C21.5437 43.5555 21.714 43.5905 21.875 43.6605C21.9147 43.6768 21.9357 43.7071 21.9683 43.7305C22.1651 43.829 22.3314 43.9792 22.4494 44.165C22.5673 44.3508 22.6325 44.5651 22.638 44.7851V44.9391C22.638 46.3615 23.2031 47.7257 24.2088 48.7315C25.2146 49.7373 26.5788 50.3023 28.0012 50.3023C29.4236 50.3023 30.7877 49.7373 31.7935 48.7315C32.7993 47.7257 33.3643 46.3615 33.3643 44.9391V44.6311L33.383 44.4281C33.4302 44.1611 33.5648 43.9173 33.7657 43.7351L33.9243 43.6161L34.041 43.5881L34.1577 43.5508L34.2697 43.5041C34.4952 43.4066 34.7445 43.3781 34.9861 43.4221C35.2278 43.4661 35.4511 43.5807 35.6277 43.7515L35.721 43.8448C36.2121 44.3732 36.8047 44.7971 37.4633 45.0913C38.1219 45.3855 38.8331 45.5439 39.5543 45.557C40.2755 45.5701 40.992 45.4377 41.6609 45.1677C42.3298 44.8977 42.9374 44.4956 43.4474 43.9854C43.9573 43.4753 44.3592 42.8676 44.6291 42.1986C44.8989 41.5296 45.0311 40.8131 45.0177 40.0919C45.0044 39.3707 44.8458 38.6596 44.5514 38.001C44.257 37.3425 43.8329 36.7501 43.3043 36.2591L43.2017 36.1518C43.0339 35.9762 42.9222 35.7546 42.8806 35.5153C42.8391 35.276 42.8696 35.0297 42.9683 34.8078C43.1853 34.2315 43.631 33.9118 44.135 33.8978" fill="white"/>
<path d="M28 0.6875C43.463 0.6875 56 13.2245 56 28.6875C56 44.1505 43.463 56.6875 28 56.6875C12.537 56.6875 0 44.1505 0 28.6875C0 13.2245 12.537 0.6875 28 0.6875ZM28 4.1875C14.469 4.1875 3.5 15.1565 3.5 28.6875C3.5 42.2185 14.469 53.1875 28 53.1875C41.531 53.1875 52.5 42.2185 52.5 28.6875C52.5 15.1565 41.531 4.1875 28 4.1875Z" fill="white"/>
</svg>
