<svg width="56" height="57" viewBox="0 0 56 57" fill="none" xmlns="http://www.w3.org/2000/svg">
<path d="M28.5973 38.8845H23.0207V43.3109C23.0206 43.7338 22.8675 44.1423 22.5895 44.461C22.3116 44.7797 21.9276 44.987 21.5087 45.0445L21.2707 45.0609H6.538C6.11471 45.0614 5.70557 44.9085 5.38637 44.6305C5.06718 44.3525 4.85957 43.9682 4.802 43.5489L4.788 43.3109V38.8822H1.75C1.32711 38.8822 0.918535 38.729 0.599829 38.4511C0.281122 38.1731 0.0738461 37.7892 0.0163333 37.3702L0 37.1322V14.4429C1.78334e-05 14.02 0.153166 13.6114 0.431123 13.2927C0.70908 12.974 1.09304 12.7667 1.512 12.7092L1.75 12.6929H40.5207V16.1929H3.5V35.3822H6.53333C6.95662 35.3817 7.36576 35.5346 7.68496 35.8126C8.00415 36.0906 8.21177 36.4748 8.26933 36.8942L8.28567 37.1322V41.5632H19.5183V38.8892H7.868L7.97067 37.4565C7.97067 36.5699 4.9 35.5152 5.754 35.3985L21.2707 35.3822H52.4767V16.1929H39.8137V12.6929H54.2267C54.65 12.6923 55.0591 12.8452 55.3783 13.1232C55.6975 13.4012 55.9051 13.7855 55.9627 14.2049L55.9767 14.4429V37.1322C55.9766 37.5551 55.8235 37.9637 55.5455 38.2824C55.2676 38.6011 54.8836 38.8084 54.4647 38.8659L54.2267 38.8822H28.5973V38.8845Z" fill="#313235"/>
<path d="M39.0832 37.7319L41.7688 35.5922L19.3852 15.0659L14.2285 15.0893L39.0855 37.7319H39.0832Z" fill="#313235"/>
<path d="M39.2489 13.1946L41.6055 15.7822L16.7532 38.4226L14.3965 35.8349L39.2465 13.1946H39.2489ZM9.52686 37.1299H25.9512Z" fill="#313235"/>
</svg>
