<svg width="48" height="49" viewBox="0 0 48 49" fill="none" xmlns="http://www.w3.org/2000/svg">
<path fill-rule="evenodd" clip-rule="evenodd" d="M47.8841 23.9697C47.5621 11.0477 36.9841 0.669678 23.9861 0.669678C10.7821 0.671678 0.0800781 11.3737 0.0800781 24.5797V42.0037L0.0900781 42.3717C0.184045 44.0236 0.906388 45.5771 2.10902 46.7135C3.31165 47.8499 4.90345 48.4833 6.55808 48.4837H9.04808L9.41608 48.4737C11.0684 48.3797 12.6221 47.6571 13.7586 46.454C14.8951 45.251 15.5282 43.6587 15.5281 42.0037V34.5357L15.5181 34.1677C15.4236 32.5157 14.7008 30.9625 13.4978 29.8264C12.2948 28.6904 10.7027 28.0575 9.04808 28.0577H3.08008V24.5777L3.08808 24.0117C3.38808 12.7277 12.6281 3.67168 23.9861 3.67168C35.5321 3.67168 44.8921 13.0317 44.8921 24.5777V28.0577H38.9241L38.5561 28.0677C36.9041 28.1616 35.3507 28.884 34.2142 30.0866C33.0778 31.2892 32.4445 32.881 32.4441 34.5357V42.0037L32.4541 42.3717C32.5481 44.024 33.2707 45.5777 34.4737 46.7142C35.6768 47.8507 37.2691 48.4838 38.9241 48.4837H41.4121L41.7801 48.4737C43.4324 48.3797 44.9861 47.6571 46.1226 46.454C47.2591 45.251 47.8922 43.6587 47.8921 42.0037V24.5757L47.8841 23.9697ZM44.8921 39.5157V31.0557H38.9241C38.0507 31.0557 37.2092 31.3842 36.5668 31.9759C35.9243 32.5676 35.5279 33.3792 35.4561 34.2497L35.4441 34.5357V42.0037C35.4441 42.8771 35.7726 43.7185 36.3643 44.361C36.956 45.0034 37.7676 45.3999 38.6381 45.4717L38.9241 45.4837H41.4121C42.2855 45.4836 43.1269 45.1551 43.7694 44.5635C44.4118 43.9718 44.8083 43.1601 44.8801 42.2897L44.8921 42.0037V39.5157ZM3.08008 31.0537V42.0017C3.08014 42.8751 3.40861 43.7165 4.0003 44.359C4.59199 45.0014 5.40363 45.3979 6.27408 45.4697L6.55808 45.4817H9.04808C9.92148 45.4816 10.7629 45.1531 11.4054 44.5615C12.0478 43.9698 12.4443 43.1581 12.5161 42.2877L12.5281 42.0017V34.5337C12.528 33.6603 12.1995 32.8188 11.6079 32.1764C11.0162 31.5339 10.2045 31.1375 9.33408 31.0657L9.04808 31.0557L3.08008 31.0537Z" fill="#313235"/>
</svg>
