<svg width="21" height="20" viewBox="0 0 21 20" fill="none" xmlns="http://www.w3.org/2000/svg">
<path d="M11.5365 13.3333H10.7031V10H9.86979M10.7031 6.66667H10.7115M18.2031 10C18.2031 10.9849 18.0091 11.9602 17.6322 12.8701C17.2553 13.7801 16.7029 14.6069 16.0064 15.3033C15.31 15.9997 14.4832 16.5522 13.5733 16.9291C12.6633 17.306 11.688 17.5 10.7031 17.5C9.71821 17.5 8.74294 17.306 7.833 16.9291C6.92306 16.5522 6.09626 15.9997 5.39982 15.3033C4.70338 14.6069 4.15094 13.7801 3.77403 12.8701C3.39712 11.9602 3.20312 10.9849 3.20313 10C3.20313 8.01088 3.9933 6.10322 5.39982 4.6967C6.80635 3.29018 8.714 2.5 10.7031 2.5C12.6922 2.5 14.5999 3.29018 16.0064 4.6967C17.4129 6.10322 18.2031 8.01088 18.2031 10Z" stroke="#BD9EFF" stroke-width="1.66667" stroke-linecap="round" stroke-linejoin="round"/>
</svg>