<svg width="21" height="22" viewBox="0 0 21 22" fill="none" xmlns="http://www.w3.org/2000/svg">
<path d="M5.90632 15C4.92134 15.0011 3.97058 14.6388 3.23619 13.9823C2.50181 13.3259 2.03544 12.4216 1.92643 11.4427C1.81743 10.4638 2.07345 9.47902 2.64546 8.67714C3.21746 7.87526 4.06522 7.31263 5.02632 7.09703C4.74824 5.80012 4.99675 4.44586 5.71717 3.33218C6.43759 2.21849 7.57092 1.43661 8.86782 1.15853C10.1647 0.880448 11.519 1.12895 12.6327 1.84937C13.7464 2.56979 14.5282 3.70312 14.8063 5.00003H14.9063C16.1463 4.99878 17.3425 5.45831 18.2627 6.2894C19.1829 7.12049 19.7614 8.26386 19.886 9.49753C20.0106 10.7312 19.6724 11.9672 18.937 12.9655C18.2016 13.9638 17.1215 14.6533 15.9063 14.9M7.90632 18L10.9063 21M10.9063 21L13.9063 18M10.9063 21V9.00003" stroke="#BD9EFF" stroke-width="2" stroke-linecap="round" stroke-linejoin="round"/>
</svg>
