<svg width="25" height="24" viewBox="0 0 25 24" fill="none" xmlns="http://www.w3.org/2000/svg">
<path d="M7.9062 16C6.92122 16.0011 5.97046 15.6388 5.23607 14.9823C4.50169 14.3259 4.03532 13.4216 3.92631 12.4427C3.81731 11.4638 4.07333 10.479 4.64534 9.67714C5.21734 8.87526 6.0651 8.31263 7.0262 8.09703C6.74812 6.80012 6.99663 5.44586 7.71705 4.33218C8.43747 3.21849 9.57079 2.43661 10.8677 2.15853C12.1646 1.88045 13.5189 2.12895 14.6326 2.84937C15.7462 3.56979 16.5281 4.70312 16.8062 6.00003H16.9062C18.1462 5.99878 19.3423 6.45831 20.2625 7.2894C21.1827 8.12049 21.7613 9.26386 21.8859 10.4975C22.0105 11.7312 21.6723 12.9672 20.9369 13.9655C20.2015 14.9638 19.1214 15.6533 17.9062 15.9M9.9062 19L12.9062 22M12.9062 22L15.9062 19M12.9062 22V10" stroke="#BD9EFF" stroke-width="2" stroke-linecap="round" stroke-linejoin="round"/>
</svg>
