<svg width="48" height="49" viewBox="0 0 48 49" fill="none" xmlns="http://www.w3.org/2000/svg">
<path d="M24.5461 13.9038L26.6561 16.0358L9.17614 33.3518L8.77814 33.7658C8.38992 34.2121 8.09376 34.7308 7.9067 35.292C7.71964 35.8532 7.64536 36.4458 7.68814 37.0358L7.72814 37.3898L7.94214 38.8158L6.52614 39.0858C6.09841 39.1681 5.69959 39.3607 5.36919 39.6445C5.0388 39.9284 4.7883 40.2936 4.6425 40.704C4.49671 41.1145 4.46069 41.5559 4.53801 41.9846C4.61532 42.4132 4.8033 42.8143 5.0833 43.1479C5.36331 43.4816 5.72563 43.7363 6.13437 43.8868C6.54311 44.0373 6.98408 44.0784 7.41361 44.0061C7.84313 43.9337 8.2463 43.7504 8.58316 43.4743C8.92003 43.1981 9.17891 42.8388 9.33414 42.4318L9.41414 42.1878L9.78014 40.7918L11.1901 41.1058C11.8724 41.2594 12.5811 41.2516 13.2599 41.0832C13.9386 40.9149 14.5688 40.5904 15.1001 40.1358L15.3641 39.8918L33.5181 21.8918L35.6301 24.0198L17.4801 42.0198C16.7464 42.7546 15.8679 43.3287 14.9004 43.7057C13.9329 44.0827 12.8976 44.2544 11.8601 44.2098L11.8081 44.2038L11.7941 44.2378C11.3454 45.0359 10.7044 45.7093 9.9294 46.1969C9.15439 46.6845 8.26987 46.9708 7.35614 47.0298L7.00014 47.0418C5.77492 47.0425 4.58455 46.634 3.61786 45.8813C2.65116 45.1285 1.96351 44.0745 1.66397 42.8864C1.36443 41.6984 1.47016 40.4443 1.9644 39.3232C2.45863 38.2021 3.31306 37.2781 4.39214 36.6978L4.67814 36.5518C4.71814 34.9578 5.25814 33.4058 6.27614 32.0938L6.56414 31.7418L7.03814 31.2498L24.5461 13.9038Z" fill="#313235"/>
<path d="M33.8262 4.11186L30.8562 7.17386L30.7482 7.10586C28.3082 5.64786 25.4542 5.82186 23.5762 7.69986C23.0652 8.21062 22.6598 8.81705 22.3833 9.48451C22.1067 10.152 21.9644 10.8674 21.9644 11.5899C21.9644 12.3124 22.1067 13.0278 22.3833 13.6952C22.6598 14.3627 23.0652 14.9691 23.5762 15.4799L33.4762 25.3799C34.5076 26.4113 35.9065 26.9907 37.3652 26.9907C38.8238 26.9907 40.2227 26.4113 41.2542 25.3799L41.5102 25.1039C42.3832 24.1023 42.8642 22.8185 42.8642 21.4899C42.8642 20.1612 42.3832 18.8774 41.5102 17.8759L41.3822 17.7379L44.3782 14.7679L44.7342 14.3519C47.1602 11.2519 46.9942 6.92786 44.3042 4.23586C41.4782 1.41386 36.8802 1.38786 33.8262 4.11386V4.11186ZM42.1822 6.35986C43.7822 7.95986 43.8802 10.5799 42.4022 12.4679L42.1702 12.7419L37.1362 17.7299L39.1322 19.7239C39.6011 20.1928 39.8645 20.8287 39.8645 21.4919C39.8645 22.155 39.6011 22.791 39.1322 23.2599C38.6633 23.7288 38.0273 23.9922 37.3642 23.9922C36.7011 23.9922 36.0651 23.7288 35.5962 23.2599L25.6962 13.3599C25.464 13.1277 25.2798 12.8521 25.1541 12.5487C25.0284 12.2454 24.9637 11.9202 24.9637 11.5919C24.9637 11.2635 25.0284 10.9384 25.1541 10.635C25.2798 10.3316 25.464 10.056 25.6962 9.82386C26.7162 8.80386 28.4802 8.88386 30.0022 10.2779L31.0802 11.2619L35.9042 6.27386C37.6242 4.74586 40.2282 4.68386 41.9242 6.12186L42.1842 6.36186L42.1822 6.35986Z" fill="#313235"/>
</svg>
