<svg width="56" height="57" viewBox="0 0 56 57" fill="none" xmlns="http://www.w3.org/2000/svg">
<path d="M53.6947 37.4216V40.9216H1.1084V37.4216H53.6947ZM43.3277 22.0636V30.3702C43.3277 30.4869 43.3047 30.6024 43.26 30.7101C43.2153 30.8178 43.1498 30.9157 43.0672 30.998C42.9846 31.0804 42.8866 31.1457 42.7788 31.1901C42.6709 31.2345 42.5554 31.2572 42.4387 31.2569H13.7737C13.6571 31.2572 13.5415 31.2345 13.4337 31.1901C13.3259 31.1457 13.2278 31.0804 13.1453 30.998C13.0627 30.9157 12.9972 30.8178 12.9524 30.7101C12.9077 30.6024 12.8847 30.4869 12.8847 30.3702V22.0612C12.8847 21.5712 13.2814 21.1746 13.7714 21.1746H42.4364C42.9264 21.1746 43.3231 21.5712 43.3231 22.0612L43.3277 22.0636ZM39.8277 24.6746H16.3824V27.7569H39.8231V24.6746H39.8277Z" fill="#313235"/>
<path d="M55.7202 13.9832V22.9642C55.7197 23.1952 55.6293 23.417 55.4682 23.5825C55.307 23.748 55.0878 23.8442 54.8569 23.8509C52.0056 23.9279 50.5799 25.2462 50.5799 27.8082C50.5799 30.3609 51.9962 31.6279 54.8266 31.6092C55.0314 31.6076 55.2304 31.6769 55.3899 31.8053C55.5494 31.9338 55.6595 32.1135 55.7016 32.3139L55.7226 32.4982V46.1762C55.7226 46.6662 55.3259 47.0629 54.8336 47.0629H1.03158C0.796205 47.0629 0.570437 46.9696 0.403784 46.8033C0.237131 46.6371 0.143196 46.4116 0.142578 46.1762V32.7176C0.142422 32.488 0.231342 32.2672 0.390623 32.1019C0.549905 31.9365 0.767127 31.8394 0.996578 31.8309C3.86191 31.7142 5.29458 30.3726 5.29458 27.8082C5.29458 25.2462 3.86424 23.9279 1.00825 23.8532C0.776535 23.8472 0.556364 23.7508 0.394657 23.5847C0.232951 23.4187 0.142498 23.196 0.142578 22.9642V13.9809C0.142578 13.4909 0.539245 13.0942 1.02925 13.0942H54.8336C55.3236 13.0942 55.7202 13.4909 55.7202 13.9809V13.9832ZM52.2202 16.5942H3.64258V20.7242L3.86425 20.7896C6.79258 21.7066 8.62424 24.0142 8.78291 27.3276L8.79458 27.8082C8.79458 31.3666 6.94658 33.8586 3.89224 34.8549L3.64258 34.9296V43.5629H52.2226V34.7919L52.0686 34.7546C49.1169 33.9146 47.2549 31.6279 47.0916 28.2912L47.0799 27.8082C47.0799 24.2382 48.9396 21.7532 52.0032 20.7919L52.2202 20.7289V16.5942V16.5942Z" fill="#313235"/>
</svg>
