<svg width="19" height="19" viewBox="0 0 19 19" fill="none" xmlns="http://www.w3.org/2000/svg">
<path d="M1.53125 1.99993V6.99993H2.11325M17.4692 8.99993C17.2481 7.24279 16.4502 5.60869 15.2006 4.3537C13.951 3.09872 12.3204 2.29379 10.5642 2.06507C8.80805 1.83634 7.02563 2.19674 5.49628 3.08979C3.96693 3.98284 2.7771 5.35806 2.11325 6.99993M2.11325 6.99993H6.53125M17.5312 17.9999V12.9999H16.9503M16.9503 12.9999C16.2854 14.6408 15.0953 16.015 13.5661 16.9072C12.0369 17.7995 10.255 18.1594 8.49935 17.9308C6.74371 17.7022 5.11345 16.8978 3.86378 15.6437C2.61412 14.3895 1.8156 12.7564 1.59325 10.9999M16.9503 12.9999H12.5312" stroke="#BD9EFF" stroke-width="2" stroke-linecap="round" stroke-linejoin="round"/>
</svg>
