<svg width="25" height="24" viewBox="0 0 25 24" fill="none" xmlns="http://www.w3.org/2000/svg">
<path d="M4.53125 3.99993V8.99993H5.11325M20.4692 10.9999C20.2481 9.24279 19.4502 7.60869 18.2006 6.3537C16.951 5.09872 15.3204 4.29379 13.5642 4.06507C11.8081 3.83634 10.0256 4.19674 8.49628 5.08979C6.96693 5.98284 5.7771 7.35806 5.11325 8.99993M5.11325 8.99993H9.53125M20.5312 19.9999V14.9999H19.9503M19.9503 14.9999C19.2854 16.6408 18.0953 18.015 16.5661 18.9072C15.0369 19.7995 13.255 20.1594 11.4993 19.9308C9.74371 19.7022 8.11345 18.8978 6.86378 17.6437C5.61412 16.3895 4.8156 14.7564 4.59325 12.9999M19.9503 14.9999H15.5312" stroke="#BD9EFF" stroke-width="2" stroke-linecap="round" stroke-linejoin="round"/>
</svg>
