<svg width="21" height="22" viewBox="0 0 21 22" fill="none" xmlns="http://www.w3.org/2000/svg">
<path d="M5.17195 15C4.18696 15.0011 3.2362 14.6388 2.50182 13.9823C1.76743 13.3259 1.30106 12.4216 1.19206 11.4427C1.08305 10.4638 1.33908 9.47902 1.91108 8.67714C2.48309 7.87526 3.33085 7.31263 4.29195 7.09703C4.01387 5.80012 4.26237 4.44586 4.9828 3.33218C5.70322 2.21849 6.83654 1.43661 8.13345 1.15853C9.43036 0.880448 10.7846 1.12895 11.8983 1.84937C13.012 2.56979 13.7939 3.70312 14.0719 5.00003H14.1719C15.4119 4.99878 16.6081 5.45831 17.5283 6.2894C18.4485 7.12049 19.027 8.26386 19.1517 9.49753C19.2763 10.7312 18.938 11.9672 18.2026 12.9655C17.4672 13.9638 16.3871 14.6533 15.1719 14.9M13.1719 12L10.1719 9.00003M10.1719 9.00003L7.17195 12M10.1719 9.00003V21" stroke="#BD9EFF" stroke-width="2" stroke-linecap="round" stroke-linejoin="round"/>
</svg>
