<svg width="31" height="52" viewBox="0 0 31 52" fill="none" xmlns="http://www.w3.org/2000/svg">
<g clip-path="url(#clip0_6_1035)">
<path d="M10.1719 20C9.18696 20.0011 8.2362 19.6388 7.50182 18.9823C6.76743 18.3259 6.30106 17.4216 6.19206 16.4427C6.08305 15.4638 6.33908 14.479 6.91108 13.6771C7.48309 12.8753 8.33085 12.3126 9.29195 12.097C9.01387 10.8001 9.26237 9.44586 9.9828 8.33218C10.7032 7.21849 11.8365 6.43661 13.1334 6.15853C14.4304 5.88045 15.7846 6.12895 16.8983 6.84937C18.012 7.56979 18.7939 8.70312 19.0719 10H19.1719C20.4119 9.99878 21.6081 10.4583 22.5283 11.2894C23.4485 12.1205 24.027 13.2639 24.1517 14.4975C24.2763 15.7312 23.938 16.9672 23.2026 17.9655C22.4672 18.9638 21.3871 19.6533 20.1719 19.9M18.1719 17L15.1719 14M15.1719 14L12.1719 17M15.1719 14V26" stroke="#BD9EFF" stroke-width="2" stroke-linecap="round" stroke-linejoin="round"/>
</g>
<path d="M5.81836 41.8438C5.81836 41.6445 5.78711 41.4688 5.72461 41.3164C5.66602 41.1602 5.56055 41.0195 5.4082 40.8945C5.25977 40.7695 5.05273 40.6504 4.78711 40.5371C4.52539 40.4238 4.19336 40.3086 3.79102 40.1914C3.36914 40.0664 2.98828 39.9277 2.64844 39.7754C2.30859 39.6191 2.01758 39.4414 1.77539 39.2422C1.5332 39.043 1.34766 38.8145 1.21875 38.5566C1.08984 38.2988 1.02539 38.0039 1.02539 37.6719C1.02539 37.3398 1.09375 37.0332 1.23047 36.752C1.36719 36.4707 1.5625 36.2266 1.81641 36.0195C2.07422 35.8086 2.38086 35.6445 2.73633 35.5273C3.0918 35.4102 3.48828 35.3516 3.92578 35.3516C4.56641 35.3516 5.10938 35.4746 5.55469 35.7207C6.00391 35.9629 6.3457 36.2812 6.58008 36.6758C6.81445 37.0664 6.93164 37.4844 6.93164 37.9297H5.80664C5.80664 37.6094 5.73828 37.3262 5.60156 37.0801C5.46484 36.8301 5.25781 36.6348 4.98047 36.4941C4.70312 36.3496 4.35156 36.2773 3.92578 36.2773C3.52344 36.2773 3.19141 36.3379 2.92969 36.459C2.66797 36.5801 2.47266 36.7441 2.34375 36.9512C2.21875 37.1582 2.15625 37.3945 2.15625 37.6602C2.15625 37.8398 2.19336 38.0039 2.26758 38.1523C2.3457 38.2969 2.46484 38.4316 2.625 38.5566C2.78906 38.6816 2.99609 38.7969 3.24609 38.9023C3.5 39.0078 3.80273 39.1094 4.1543 39.207C4.63867 39.3438 5.05664 39.4961 5.4082 39.6641C5.75977 39.832 6.04883 40.0215 6.27539 40.2324C6.50586 40.4395 6.67578 40.6758 6.78516 40.9414C6.89844 41.2031 6.95508 41.5 6.95508 41.832C6.95508 42.1797 6.88477 42.4941 6.74414 42.7754C6.60352 43.0566 6.40234 43.2969 6.14062 43.4961C5.87891 43.6953 5.56445 43.8496 5.19727 43.959C4.83398 44.0645 4.42773 44.1172 3.97852 44.1172C3.58398 44.1172 3.19531 44.0625 2.8125 43.9531C2.43359 43.8438 2.08789 43.6797 1.77539 43.4609C1.4668 43.2422 1.21875 42.9727 1.03125 42.6523C0.847656 42.3281 0.755859 41.9531 0.755859 41.5273H1.88086C1.88086 41.8203 1.9375 42.0723 2.05078 42.2832C2.16406 42.4902 2.31836 42.6621 2.51367 42.7988C2.71289 42.9355 2.9375 43.0371 3.1875 43.1035C3.44141 43.166 3.70508 43.1973 3.97852 43.1973C4.37305 43.1973 4.70703 43.1426 4.98047 43.0332C5.25391 42.9238 5.46094 42.7676 5.60156 42.5645C5.74609 42.3613 5.81836 42.1211 5.81836 41.8438ZM11.9707 42.916V39.6523C11.9707 39.4023 11.9199 39.1855 11.8184 39.002C11.7207 38.8145 11.5723 38.6699 11.373 38.5684C11.1738 38.4668 10.9277 38.416 10.6348 38.416C10.3613 38.416 10.1211 38.4629 9.91406 38.5566C9.71094 38.6504 9.55078 38.7734 9.43359 38.9258C9.32031 39.0781 9.26367 39.2422 9.26367 39.418H8.17969C8.17969 39.1914 8.23828 38.9668 8.35547 38.7441C8.47266 38.5215 8.64062 38.3203 8.85938 38.1406C9.08203 37.957 9.34766 37.8125 9.65625 37.707C9.96875 37.5977 10.3164 37.543 10.6992 37.543C11.1602 37.543 11.5664 37.6211 11.918 37.7773C12.2734 37.9336 12.5508 38.1699 12.75 38.4863C12.9531 38.7988 13.0547 39.1914 13.0547 39.6641V42.6172C13.0547 42.8281 13.0723 43.0527 13.1074 43.291C13.1465 43.5293 13.2031 43.7344 13.2773 43.9062V44H12.1465C12.0918 43.875 12.0488 43.709 12.0176 43.502C11.9863 43.291 11.9707 43.0957 11.9707 42.916ZM12.1582 40.1562L12.1699 40.918H11.0742C10.7656 40.918 10.4902 40.9434 10.248 40.9941C10.0059 41.041 9.80273 41.1133 9.63867 41.2109C9.47461 41.3086 9.34961 41.4316 9.26367 41.5801C9.17773 41.7246 9.13477 41.8945 9.13477 42.0898C9.13477 42.2891 9.17969 42.4707 9.26953 42.6348C9.35938 42.7988 9.49414 42.9297 9.67383 43.0273C9.85742 43.1211 10.082 43.168 10.3477 43.168C10.6797 43.168 10.9727 43.0977 11.2266 42.957C11.4805 42.8164 11.6816 42.6445 11.8301 42.4414C11.9824 42.2383 12.0645 42.041 12.0762 41.8496L12.5391 42.3711C12.5117 42.5352 12.4375 42.7168 12.3164 42.916C12.1953 43.1152 12.0332 43.3066 11.8301 43.4902C11.6309 43.6699 11.3926 43.8203 11.1152 43.9414C10.8418 44.0586 10.5332 44.1172 10.1895 44.1172C9.75977 44.1172 9.38281 44.0332 9.05859 43.8652C8.73828 43.6973 8.48828 43.4727 8.30859 43.1914C8.13281 42.9062 8.04492 42.5879 8.04492 42.2363C8.04492 41.8965 8.11133 41.5977 8.24414 41.3398C8.37695 41.0781 8.56836 40.8613 8.81836 40.6895C9.06836 40.5137 9.36914 40.3809 9.7207 40.291C10.0723 40.2012 10.4648 40.1562 10.8984 40.1562H12.1582ZM16.5938 43.0215L18.3281 37.6602H19.4355L17.1562 44H16.4297L16.5938 43.0215ZM15.1465 37.6602L16.9336 43.0508L17.0566 44H16.3301L14.0332 37.6602H15.1465ZM23.0273 44.1172C22.5859 44.1172 22.1855 44.043 21.8262 43.8945C21.4707 43.7422 21.1641 43.5293 20.9062 43.2559C20.6523 42.9824 20.457 42.6582 20.3203 42.2832C20.1836 41.9082 20.1152 41.498 20.1152 41.0527V40.8066C20.1152 40.291 20.1914 39.832 20.3438 39.4297C20.4961 39.0234 20.7031 38.6797 20.9648 38.3984C21.2266 38.1172 21.5234 37.9043 21.8555 37.7598C22.1875 37.6152 22.5312 37.543 22.8867 37.543C23.3398 37.543 23.7305 37.6211 24.0586 37.7773C24.3906 37.9336 24.6621 38.1523 24.873 38.4336C25.084 38.7109 25.2402 39.0391 25.3418 39.418C25.4434 39.793 25.4941 40.2031 25.4941 40.6484V41.1348H20.7598V40.25H24.4102V40.168C24.3945 39.8867 24.3359 39.6133 24.2344 39.3477C24.1367 39.082 23.9805 38.8633 23.7656 38.6914C23.5508 38.5195 23.2578 38.4336 22.8867 38.4336C22.6406 38.4336 22.4141 38.4863 22.207 38.5918C22 38.6934 21.8223 38.8457 21.6738 39.0488C21.5254 39.252 21.4102 39.5 21.3281 39.793C21.2461 40.0859 21.2051 40.4238 21.2051 40.8066V41.0527C21.2051 41.3535 21.2461 41.6367 21.3281 41.9023C21.4141 42.1641 21.5371 42.3945 21.6973 42.5938C21.8613 42.793 22.0586 42.9492 22.2891 43.0625C22.5234 43.1758 22.7891 43.2324 23.0859 43.2324C23.4688 43.2324 23.793 43.1543 24.0586 42.998C24.3242 42.8418 24.5566 42.6328 24.7559 42.3711L25.4121 42.8926C25.2754 43.0996 25.1016 43.2969 24.8906 43.4844C24.6797 43.6719 24.4199 43.8242 24.1113 43.9414C23.8066 44.0586 23.4453 44.1172 23.0273 44.1172Z" fill="white"/>
<defs>
<clipPath id="clip0_6_1035">
<rect width="24" height="24" fill="white" transform="translate(3.17188 4)"/>
</clipPath>
</defs>
</svg>
