<svg width="19" height="19" viewBox="0 0 19 19" fill="none" xmlns="http://www.w3.org/2000/svg">
<path d="M9.5 9.5C8.19375 9.5 7.07552 9.0349 6.14531 8.10469C5.2151 7.17448 4.75 6.05625 4.75 4.75C4.75 3.44375 5.2151 2.32552 6.14531 1.39531C7.07552 0.465104 8.19375 0 9.5 0C10.8062 0 11.9245 0.465104 12.8547 1.39531C13.7849 2.32552 14.25 3.44375 14.25 4.75C14.25 6.05625 13.7849 7.17448 12.8547 8.10469C11.9245 9.0349 10.8062 9.5 9.5 9.5ZM2.375 19C1.72187 19 1.16296 18.7676 0.69825 18.3029C0.23275 17.8374 0 17.2781 0 16.625V15.675C0 15.0021 0.173375 14.3834 0.520125 13.8189C0.866084 13.2553 1.32604 12.825 1.9 12.5281C3.12708 11.9146 4.37396 11.4542 5.64062 11.1471C6.90729 10.8407 8.19375 10.6875 9.5 10.6875C10.8062 10.6875 12.0927 10.8407 13.3594 11.1471C14.626 11.4542 15.8729 11.9146 17.1 12.5281C17.674 12.825 18.1339 13.2553 18.4799 13.8189C18.8266 14.3834 19 15.0021 19 15.675V16.625C19 17.2781 18.7676 17.8374 18.3029 18.3029C17.8374 18.7676 17.2781 19 16.625 19H2.375Z" fill="white"/>
</svg>
