<svg width="25" height="24" viewBox="0 0 25 24" fill="none" xmlns="http://www.w3.org/2000/svg">
<path d="M9.69427 3.91C9.88311 3.91177 10.0643 3.98471 10.2017 4.11425C10.3391 4.2438 10.4226 4.42041 10.4355 4.60881C10.4484 4.79722 10.3897 4.98355 10.2712 5.13058C10.1527 5.27762 9.98311 5.37455 9.79627 5.402L9.69427 5.409H3.59527C2.71727 5.409 1.98727 6.093 1.91227 6.954L1.90627 7.099V20.515C1.90627 21.399 2.58527 22.125 3.45027 22.198L3.59527 22.205H17.0123C17.4351 22.2048 17.8425 22.0462 18.1541 21.7603C18.4656 21.4745 18.6587 21.0822 18.6953 20.661L18.7023 20.515V14.417C18.7023 14.227 18.7745 14.0441 18.9042 13.9052C19.034 13.7664 19.2116 13.6819 19.4012 13.669C19.5907 13.656 19.7782 13.7155 19.9256 13.8354C20.073 13.9553 20.1694 14.1267 20.1953 14.315L20.2023 14.417V20.515C20.2023 21.3297 19.8906 22.1136 19.3311 22.7058C18.7716 23.2981 18.0067 23.6538 17.1933 23.7L17.0133 23.705H3.59427C2.77971 23.7048 1.9961 23.393 1.40408 22.8335C0.812059 22.274 0.456491 21.5092 0.410273 20.696L0.405273 20.516V7.098C0.406921 6.28377 0.719183 5.50084 1.27835 4.90897C1.83752 4.3171 2.60145 3.96088 3.41427 3.913L3.59427 3.908H9.69327L9.69427 3.91ZM23.1113 0.25C23.2925 0.250008 23.4676 0.315643 23.6042 0.434767C23.7408 0.553891 23.8296 0.718446 23.8543 0.898L23.8613 1V8.318C23.8612 8.50802 23.789 8.69094 23.6593 8.82979C23.5296 8.96864 23.352 9.05307 23.1624 9.06603C22.9728 9.07898 22.7854 9.01948 22.638 8.89957C22.4906 8.77965 22.3942 8.60825 22.3683 8.42L22.3613 8.318L22.3603 2.811L10.2243 14.947C10.0903 15.08 9.91107 15.1575 9.72241 15.1641C9.53376 15.1708 9.34954 15.106 9.20652 14.9828C9.0635 14.8596 8.9722 14.687 8.95084 14.4995C8.92947 14.3119 8.97962 14.1232 9.09127 13.971L9.16427 13.886L21.2993 1.75H15.7923C15.611 1.74999 15.4359 1.68436 15.2993 1.56523C15.1628 1.44611 15.0739 1.28155 15.0493 1.102L15.0423 1C15.0423 0.818612 15.1081 0.643385 15.2274 0.506774C15.3467 0.370164 15.5115 0.281427 15.6913 0.257L15.7923 0.25H23.1113Z" fill="#BD9EFF"/>
</svg>
