<svg width="48" height="48" viewBox="0 0 48 48" fill="none" xmlns="http://www.w3.org/2000/svg">
<path d="M34.2882 16.8401C34.5171 16.5393 34.8511 16.3359 35.2234 16.2708C35.5957 16.2056 35.979 16.2834 36.2964 16.4886C36.6138 16.6938 36.8421 17.0113 36.9355 17.3776C37.0289 17.7439 36.9806 18.1319 36.8002 18.4641L36.6802 18.6501L28.6562 29.2581C28.4286 29.5624 28.094 29.7689 27.7199 29.836C27.3459 29.9031 26.9604 29.8258 26.6412 29.6196C26.322 29.4134 26.0929 29.0937 26.0003 28.7252C25.9077 28.3567 25.9584 27.9667 26.1422 27.6341L26.2622 27.4481L34.2882 16.8401Z" fill="#313235"/>
<path d="M23.9998 8.50391C36.9738 8.50391 47.4918 19.0219 47.4918 31.9959C47.4918 32.3937 47.3338 32.7753 47.0525 33.0566C46.7712 33.3379 46.3896 33.4959 45.9918 33.4959C45.594 33.4959 45.2125 33.3379 44.9312 33.0566C44.6498 32.7753 44.4918 32.3937 44.4918 31.9959C44.4918 20.6779 35.3178 11.5039 23.9998 11.5039C12.6818 11.5039 3.50781 20.6779 3.50781 31.9959C3.50781 32.3937 3.34978 32.7753 3.06847 33.0566C2.78717 33.3379 2.40564 33.4959 2.00781 33.4959C1.60999 33.4959 1.22846 33.3379 0.947152 33.0566C0.665848 32.7753 0.507813 32.3937 0.507812 31.9959C0.507812 19.0219 11.0258 8.50391 23.9998 8.50391Z" fill="#313235"/>
<path d="M24 25.9961C24.7879 25.9961 25.5681 26.1513 26.2961 26.4528C27.0241 26.7543 27.6855 27.1963 28.2426 27.7535C28.7998 28.3106 29.2417 28.972 29.5433 29.7C29.8448 30.4279 30 31.2082 30 31.9961C30 32.784 29.8448 33.5642 29.5433 34.2922C29.2417 35.0201 28.7998 35.6816 28.2426 36.2387C27.6855 36.7959 27.0241 37.2378 26.2961 37.5394C25.5681 37.8409 24.7879 37.9961 24 37.9961C22.4087 37.9961 20.8826 37.364 19.7574 36.2387C18.6321 35.1135 18 33.5874 18 31.9961C18 30.4048 18.6321 28.8787 19.7574 27.7535C20.8826 26.6282 22.4087 25.9961 24 25.9961ZM24 28.9961C23.606 28.9961 23.2159 29.0737 22.8519 29.2245C22.488 29.3752 22.1573 29.5962 21.8787 29.8748C21.6001 30.1533 21.3791 30.4841 21.2284 30.848C21.0776 31.212 21 31.6021 21 31.9961C21 32.3901 21.0776 32.7802 21.2284 33.1441C21.3791 33.5081 21.6001 33.8388 21.8787 34.1174C22.1573 34.396 22.488 34.617 22.8519 34.7677C23.2159 34.9185 23.606 34.9961 24 34.9961C24.7956 34.9961 25.5587 34.68 26.1213 34.1174C26.6839 33.5548 27 32.7917 27 31.9961C27 31.2004 26.6839 30.4374 26.1213 29.8748C25.5587 29.3122 24.7956 28.9961 24 28.9961Z" fill="#313235"/>
</svg>
