<svg width="48" height="48" viewBox="0 0 48 48" fill="none" xmlns="http://www.w3.org/2000/svg">
<path fill-rule="evenodd" clip-rule="evenodd" d="M25.1322 1.01601C24.9914 0.85372 24.8174 0.723572 24.6219 0.634378C24.4264 0.545183 24.2141 0.499023 23.9992 0.499023C23.7843 0.499023 23.572 0.545183 23.3765 0.634378C23.181 0.723572 23.007 0.85372 22.8662 1.01601L22.8542 1.03201L22.8002 1.09201C22.4356 1.48833 22.0588 1.87318 21.6702 2.24601C20.8822 3.00601 19.7382 4.01801 18.3342 5.03001C15.4942 7.07601 11.7502 8.99201 7.78221 8.99201C7.45012 8.99192 7.1274 9.10203 6.86463 9.30509C6.60185 9.50814 6.41389 9.79265 6.33021 10.114L7.78221 10.494L6.33021 10.114V10.118L6.32821 10.124L6.32221 10.144L6.30821 10.206C6.22592 10.5555 6.1519 10.907 6.08621 11.26C5.95221 11.97 5.79221 12.986 5.67221 14.24C5.35765 17.5189 5.47195 20.8247 6.01221 24.074C7.32821 31.84 11.6082 41.168 23.3002 47.328C23.516 47.4419 23.7562 47.5014 24.0002 47.5014C24.2442 47.5014 24.4844 47.4419 24.7002 47.328C36.3922 41.168 40.6722 31.84 41.9882 24.074C42.6422 20.212 42.5662 16.742 42.3282 14.24C42.2082 12.986 42.0482 11.97 41.9142 11.26C41.8492 10.907 41.7758 10.5556 41.6942 10.206L41.6762 10.142L41.6722 10.124V10.12L41.6702 10.118L40.2182 10.494L41.6702 10.118C41.5866 9.79644 41.3987 9.51168 41.136 9.30829C40.8732 9.10491 40.5505 8.99438 40.2182 8.99401C36.2502 8.99401 32.5062 7.07801 29.6642 5.03201C28.1425 3.93084 26.7234 2.69448 25.4242 1.33801C25.3486 1.25616 25.274 1.17348 25.2002 1.09001L25.1462 1.03001L25.1342 1.01601H25.1322ZM38.9902 11.944C34.6022 11.6 30.7062 9.47801 27.9102 7.46401C26.5263 6.46388 25.2193 5.36146 24.0002 4.16601C22.7823 5.36362 21.4745 6.46618 20.0882 7.46401C17.2922 9.47801 13.3982 11.6 9.00821 11.944C8.85643 12.7988 8.74033 13.6596 8.66021 14.524C8.37019 17.5407 8.4744 20.5823 8.97021 23.572C10.1362 30.454 13.8242 38.66 24.0002 44.296C34.1762 38.662 37.8642 30.456 39.0302 23.572C39.6302 20.032 39.5622 16.836 39.3402 14.524C39.2595 13.6595 39.1427 12.7988 38.9902 11.944Z" fill="#313235"/>
<path fill-rule="evenodd" clip-rule="evenodd" d="M17.8062 29.2641L23.7042 24.2441C26.3342 22.0241 27.2922 20.7921 27.2922 19.0641C27.2922 17.1701 25.9522 16.0741 24.1982 16.0741C22.6602 16.0741 21.5922 16.7881 20.4122 18.2141C20.2646 18.3806 20.0827 18.5133 19.879 18.603C19.6754 18.6928 19.4547 18.7375 19.2322 18.7341C19.0306 18.7346 18.8309 18.6953 18.6446 18.6184C18.4582 18.5415 18.2889 18.4285 18.1463 18.286C18.0038 18.1434 17.8908 17.9741 17.8139 17.7878C17.737 17.6014 17.6977 17.4017 17.6982 17.2001C17.6982 16.8421 17.8342 16.4581 18.0822 16.1581C19.6442 14.2101 21.4262 13.0581 24.4422 13.0581C28.2002 13.0581 30.7762 15.3621 30.7762 18.7901V18.8441C30.7762 21.8621 29.1862 23.5041 25.7862 26.2741L21.8362 29.5641H29.6242C30.4482 29.5641 31.1042 30.2221 31.1042 31.0441C31.1042 31.8661 30.4462 32.5241 29.6242 32.5241H18.7402C17.7002 32.5241 16.9282 31.9221 16.9282 30.9361C16.9282 30.2761 17.2302 29.7281 17.8082 29.2641H17.8062Z" fill="#313235"/>
</svg>
