<svg width="56" height="57" viewBox="0 0 56 57" fill="none" xmlns="http://www.w3.org/2000/svg">
<path fill-rule="evenodd" clip-rule="evenodd" d="M8.67084 2.01748C11.41 0.770538 14.4644 0.389277 17.426 0.924641C20.3876 1.46 23.1153 2.88649 25.2445 5.01348C27.2189 6.9883 28.5932 9.48223 29.2081 12.2062C29.823 14.9302 29.6534 17.7726 28.7188 20.4041L55.4262 44.8341C55.6003 44.9937 55.7403 45.1868 55.8378 45.4019C55.9354 45.617 55.9883 45.8496 55.9935 46.0857C55.9988 46.3218 55.9562 46.5565 55.8683 46.7757C55.7804 46.9949 55.6491 47.194 55.4822 47.3611L46.6785 56.1718C46.5114 56.3391 46.3121 56.4707 46.0927 56.5588C45.8732 56.6469 45.6383 56.6896 45.4019 56.6844C45.1655 56.6792 44.9326 56.6261 44.7173 56.5284C44.502 56.4306 44.3087 56.2903 44.1492 56.1158L19.7168 29.4038C16.9829 30.3762 14.0232 30.5218 11.207 29.8224C8.39087 29.123 5.84313 27.6096 3.88184 25.4711C1.92055 23.3326 0.632615 20.6638 0.178819 17.7978C-0.274977 14.9318 0.125472 11.9956 1.33017 9.35581C1.44719 9.09843 1.62483 8.87323 1.84788 8.69949C2.07093 8.52575 2.33276 8.40864 2.61095 8.35819C2.88915 8.30773 3.17543 8.32543 3.44529 8.40977C3.71515 8.49411 3.96055 8.64258 4.16051 8.84247L11.7275 16.4095L15.7198 12.4148L8.15284 4.84781C7.95245 4.64788 7.80354 4.40231 7.71891 4.13219C7.63427 3.86206 7.61643 3.57544 7.6669 3.2969C7.71738 3.01836 7.83467 2.75623 8.00871 2.53298C8.18276 2.30974 8.40836 2.13204 8.66617 2.01514L8.67084 2.01748ZM12.6538 4.39748L19.4368 11.1758C19.7646 11.5039 19.9486 11.9487 19.9486 12.4125C19.9486 12.8762 19.7646 13.321 19.4368 13.6491L12.9665 20.1241C12.6384 20.4519 12.1936 20.6359 11.7298 20.6359C11.2661 20.6359 10.8213 20.4519 10.4932 20.1241L3.71017 13.3411C3.35738 15.1514 3.45482 17.0206 3.99392 18.7844C4.53302 20.5482 5.49726 22.1525 6.80184 23.4561C8.42893 25.081 10.5137 26.1699 12.7769 26.5769C15.0401 26.9839 17.3736 26.6896 19.4648 25.7335C19.8017 25.58 20.1786 25.5373 20.5412 25.6115C20.9039 25.6857 21.2337 25.873 21.4832 26.1465L45.4955 52.4035L51.7138 46.1805L25.4615 22.1705C25.188 21.921 25.0007 21.5912 24.9265 21.2285C24.8523 20.8659 24.895 20.489 25.0485 20.1521C26.004 18.0606 26.2978 15.727 25.8903 13.4639C25.4829 11.2008 24.3938 9.11615 22.7688 7.48914C21.4654 6.18415 19.8612 5.21948 18.0974 4.67997C16.3336 4.14046 14.4643 4.04265 12.6538 4.39514V4.39748Z" fill="#313234"/>
<path fill-rule="evenodd" clip-rule="evenodd" d="M43.0338 0.771485C43.3605 0.771273 43.6807 0.862517 43.9582 1.03489C44.2358 1.20726 44.4595 1.45387 44.6041 1.74682L47.5208 7.66182L54.0471 8.60915C54.3707 8.65575 54.6747 8.79203 54.9248 9.00258C55.1749 9.21312 55.361 9.48949 55.462 9.80038C55.563 10.1113 55.575 10.4443 55.4965 10.7616C55.418 11.0789 55.2521 11.3679 55.0178 11.5958L50.2951 16.1972L51.4105 22.6978C51.4653 23.0195 51.429 23.3501 51.3059 23.6522C51.1827 23.9544 50.9776 24.2161 50.7135 24.4078C50.4495 24.5995 50.1371 24.7136 49.8117 24.7372C49.4862 24.7607 49.1607 24.6928 48.8718 24.5411L43.0338 21.4728L37.1981 24.5411C36.9092 24.6935 36.5833 24.7619 36.2575 24.7386C35.9317 24.7154 35.6188 24.6014 35.3544 24.4096C35.09 24.2178 34.8846 23.9558 34.7613 23.6533C34.6381 23.3508 34.602 23.0198 34.6571 22.6978L35.7725 16.1972L31.0498 11.5935C30.8161 11.3655 30.6509 11.0767 30.5728 10.7597C30.4947 10.4427 30.5068 10.1102 30.6078 9.7997C30.7088 9.48924 30.8946 9.21321 31.1442 9.00282C31.3939 8.79244 31.6974 8.65607 32.0205 8.60915L38.5468 7.66182L41.4635 1.74682C41.6081 1.45387 41.8318 1.20726 42.1093 1.03489C42.3869 0.862517 42.7071 0.771273 43.0338 0.771485ZM43.0338 6.47648L41.2768 10.0348C41.1513 10.2889 40.966 10.5087 40.7367 10.6754C40.5075 10.842 40.2412 10.9505 39.9608 10.9915L36.0338 11.5632L38.8735 14.3328C39.0768 14.5308 39.2289 14.7753 39.3168 15.0453C39.4046 15.3152 39.4254 15.6024 39.3775 15.8822L38.7101 19.7975L42.2218 17.9495C42.4729 17.8175 42.7524 17.7485 43.0361 17.7485C43.3198 17.7485 43.5993 17.8175 43.8505 17.9495L47.3645 19.7975L46.6925 15.8845C46.6445 15.6047 46.6653 15.3175 46.7532 15.0476C46.841 14.7777 46.9931 14.5332 47.1965 14.3352L50.0385 11.5655L46.1115 10.9938C45.8306 10.9532 45.5639 10.8449 45.3342 10.6782C45.1045 10.5116 44.9188 10.2915 44.7931 10.0372L43.0361 6.47882L43.0338 6.47648Z" fill="#313234"/>
</svg>